<svg xmlns="http://www.w3.org/2000/svg" width="782.72247mm" height="200mm" viewBox="0 0 782.72247 200"><path d="M213.1 109.971h64.265v18.114H243.16v15.085h31.315v18.114H243.16v16.354h34.703v18.108H213.1ZM293.092 109.971h30.052v64.265h33.703v21.51h-63.755ZM366.397 109.971h30.052v64.265h33.71v21.51h-63.762ZM496.498 109.554h-71.49v6.362h32.205v80.248h7.508v-80.248h32.205v-6.362ZM515.218 115.915h13.525c14.126 0 22.227 5.955 22.227 16.32 0 10.592-7.804 16.43-21.971 16.43h-13.781Zm38.775 49.92c-4.058-6.101-7.308-10.497-11.062-12.753 10.6-4.092 16.037-11.124 16.037-20.978 0-6.77-2.809-22.551-28.838-22.551h-22.42v86.61h7.508v-41.121h11.145c10.268 0 13.421 1.49 23.544 17.41l14.961 23.517 8.156.193h.76zM590.29 109.554h-7.087v86.61h7.515v-86.61ZM647.153 190.298c-21.268 0-37.926-16.458-37.926-37.443 0-20.998 16.658-37.436 37.926-37.436 21.143 0 37.684 16.438 37.684 37.436 0 20.985-16.54 37.443-37.684 37.443m-.235-81.869c-25.635 0-45.716 19.508-45.716 44.426 0 24.925 20.08 44.44 45.716 44.44 25.753 0 45.93-19.515 45.93-44.44 0-24.918-20.177-44.426-45.93-44.426M782.295 109.554h-7.073v74.25l-64.28-74.105-5.982-.145h-.428v86.61h7.508v-74.258l64.417 74.106 5.838.152h.428v-86.61ZM154.145 171.949a18.494 18.494 0 0 1-18.48-18.487 18.494 18.494 0 0 1 18.48-18.466 18.494 18.494 0 0 1 15.526 8.474h29.9c-4.595-20.854-23.213-36.539-45.426-36.539a46.58 46.58 0 0 0-46.53 46.531A46.586 46.586 0 0 0 154.144 200c23.276 0 42.55-17.19 45.937-39.52h-28.851a18.466 18.466 0 0 1-17.086 11.469" style="fill:#fff;fill-opacity:1;fill-rule:nonzero;stroke:none;stroke-width:6.90062"/><path d="M153.111 71.863a26.264 26.264 0 1 1 .014-52.528 26.264 26.264 0 0 1-.014 52.528m0-71.863a45.592 45.592 0 0 0 0 91.185 45.6 45.6 0 1 0 0-91.185M0 152.413a45.6 45.6 0 1 0 91.199 0 45.6 45.6 0 0 0-91.199 0M45.821 84.242A38.574 38.574 0 0 1 7.288 45.695 38.574 38.574 0 0 1 45.82 7.148a38.595 38.595 0 0 1 38.554 38.547A38.595 38.595 0 0 1 45.82 84.242m0-84.105A45.613 45.613 0 0 0 .263 45.695a45.613 45.613 0 0 0 45.558 45.558 45.6 45.6 0 0 0 45.551-45.558A45.6 45.6 0 0 0 45.821.137" style="fill:#50b848;fill-opacity:1;fill-rule:nonzero;stroke:none;stroke-width:6.90062"/></svg>