<svg xmlns="http://www.w3.org/2000/svg" xml:space="preserve" width="225.60001" height="91.900002" viewBox="0 0 225.60001 91.900001"><defs><clipPath id="a" clipPathUnits="userSpaceOnUse"><path d="M0 595.28h419.53V0H0Z"/></clipPath></defs><g clip-path="url(#a)" transform="matrix(2.05861 0 0 -2.05861 -270.155 752.469)"><path d="M0 0c-.76 5.731-3.581 10.402-6.462 10.425-2.884 0-7.094-4.676-9.55-10.433-2.452-5.758.323-10.422 6.497-10.422C-3.303-10.366.76-5.738 0 0" style="fill:#df0615;fill-opacity:1;fill-rule:nonzero;stroke:none" transform="translate(167.036 331.344)"/><path d="M0 0c-3.685 0-6.372-2.912-6.372-6.601 0-3.686 2.687-6.51 6.372-6.51 2.051 0 3.989.918 5.266 2.516-.138.135-.492.886-1.68.886-1.118 0-1.37-1.121-3.586-1.121-2.167 0-3.967 1.84-3.967 4.229 0 2.389 1.8 4.315 3.967 4.315 1.979 0 2.454-1.175 3.469-1.175 1.019 0 1.613.813 1.751.941A6.637 6.637 0 0 1 0 0" style="fill:#261613;fill-opacity:1;fill-rule:nonzero;stroke:none" transform="translate(137.604 346.597)"/><path d="M0 0h-5.182c-.876 0-1.489-.524-1.489-1.358v-.767h2.31s.088-7.805-.011-8.649h-.002c-.031-.645-.311-2.184-1.794-2.881-1.219-.572-1.232-1.116-1.294-1.963.018-.062.043-.099.078-.104h.007c.004 0 .011 0 .014.007.044.009 1.21.295 1.379.367l-.004.006c1.094.338 2.771 1.09 3.571 2.642 0 0 .747 1.151.732 3.619v6.956h.11C-.701-2.125 0-1.598 0-.762v.764" style="fill:#261613;fill-opacity:1;fill-rule:nonzero;stroke:none" transform="translate(150.606 346.213)"/><path d="M0 0c5.388-2.12 7.47-8.001 4.507-13.382-2.993-5.4-8.419-5.565-12.263-.628-3.845 4.936-5.865 10.84-4.503 13.393C-10.865 1.903-5.408 2.125 0 0" style="fill:#f49c00;fill-opacity:1;fill-rule:nonzero;stroke:none" transform="translate(177.33 350.32)"/><path d="M0 0c4.796-3.278 10.169-4.269 12.073-2.144C13.992 0 13.33 6.252 10.682 11.925c-2.651 5.669-7.98 6.716-12.099 2.121C-5.485 9.457-4.782 3.264 0 0" style="fill:#007ac3;fill-opacity:1;fill-rule:nonzero;stroke:none" transform="translate(149.846 348.597)"/><path d="M0 0c0 1.214.845 2.202 1.895 2.202C2.941 2.202 3.79 1.214 3.79 0c0-1.217-.849-2.2-1.895-2.2C.845-2.2 0-1.217 0 0m5.802 0c0 1.845-1.75 3.336-3.907 3.336-2.161 0-3.911-1.491-3.911-3.336 0-1.842 1.75-3.333 3.911-3.333 2.157 0 3.907 1.491 3.907 3.333" style="fill:#261613;fill-opacity:1;fill-rule:nonzero;stroke:none" transform="translate(203.13 343.243)"/><path d="M0 0v5.322h-.837c-.737 0-1.142-.456-1.142-1.278v-5.323h.84C-.403-1.279 0-.823 0 0" style="fill:#261613;fill-opacity:1;fill-rule:nonzero;stroke:none" transform="translate(212.686 341.021)"/><path d="M0 0h-1.338l.002 2.903h-.841c-.733 0-1.138-.456-1.138-1.278v-3.5c-1.421-.313-3.063-.408-3.841-.426l-2.383-.003v3.402l3.897.003c.133.003.663.045.663.665v.61h-6.533l-.005-4.788c0-.646.59-1.168 1.31-1.168h1.544c2.584 0 4.205.274 5.348.602v-1.1h.836c.737 0 1.143.457 1.143 1.279l-.002 1.523H.659v.612C.659-.046.134 0 0 0" style="fill:#261613;fill-opacity:1;fill-rule:nonzero;stroke:none" transform="translate(240.15 343.44)"/><path d="M0 0v-11.605h.837c.738 0 1.141.456 1.141 1.278V1.276h-.84C.403 1.276 0 .825 0 0" style="fill:#261613;fill-opacity:1;fill-rule:nonzero;stroke:none" transform="translate(197.488 345.062)"/><path d="M0 0v1.204h1.476c.136.001.66.045.66.663v.612h-5.582c-.136 0-.66-.046-.66-.663v-.612h2.127V0c-.047-1.509-.376-4.06-2.811-5.975 0 0 .326-.272.592-.455.261-.181.849-.317 1.199 0A9.463 9.463 0 0 1-.985-3.817 9.501 9.501 0 0 1 1.032-6.43c.347-.317.935-.181 1.199 0 .267.183.588.455.588.455C.389-4.06.047-1.509 0 0" style="fill:#261613;fill-opacity:1;fill-rule:nonzero;stroke:none" transform="translate(191.51 343.284)"/><path d="M0 0v-2.593h-1.014c-.136-.003-.659-.05-.659-.664v-.613H0v-7.735h.838c.737 0 1.141.456 1.141 1.278V1.276H1.14C.402 1.276 0 .825 0 0" style="fill:#261613;fill-opacity:1;fill-rule:nonzero;stroke:none" transform="translate(194.558 345.062)"/><path d="M0 0h6.047c.722 0 1.308.522 1.308 1.166V3.4h-8.673c-.137 0-.66-.046-.66-.666v-.612h7.355v-.846H-.841c-.736 0-1.14-.455-1.14-1.276l.003-2.247h8.797c.138 0 .665.049.665.664v.611H0Z" style="fill:#261613;fill-opacity:1;fill-rule:nonzero;stroke:none" transform="translate(205.329 335.71)"/><path d="M0 0c-1.085 0-1.957.998-1.957 2.237 0 1.234.872 2.235 1.957 2.235s1.96-1.001 1.96-2.235C1.96.998 1.085 0 0 0m.005 5.619c-2.164 0-3.912-1.515-3.912-3.382 0-1.869 1.748-3.383 3.912-3.383 2.156 0 3.906 1.514 3.906 3.383 0 1.867-1.75 3.382-3.906 3.382" style="fill:#261613;fill-opacity:1;fill-rule:nonzero;stroke:none" transform="translate(234.943 333.835)"/><path d="M0 0v-11.603h.827c.724 0 1.124.456 1.124 1.275V1.277h-.828C.397 1.277 0 .825 0 0" style="fill:#261613;fill-opacity:1;fill-rule:nonzero;stroke:none" transform="translate(224.992 344.805)"/><path d="M0 0v-2.592h-1.155c-.134-.001-.652-.049-.652-.666v-.613H0v-7.732h.825c.727 0 1.124.456 1.124 1.275V1.277h-.827C.397 1.277 0 .825 0 0" style="fill:#261613;fill-opacity:1;fill-rule:nonzero;stroke:none" transform="translate(222.105 344.805)"/><path d="M0 0h-4.589c-.124 0-.611-.046-.634-.665l-.022-.645h3.431c-.045-1.365-.53-4.03-3.191-5.923-.257-.184-.61-.4-.918-.548.015.007.184-.318.475-.692.256-.329.667-.447 1.146-.139.557.357 1.294.955 1.996 1.779.205.232.382.445.513.637.453-.885 1.31-1.979 1.822-2.416.308-.261.75-.152.968.038.216.193.539.582.539.582C.437-6.82-.465-5.61-.813-4.507c.294.847.724 1.989.795 3.306C.016-.971 0 0 0 0" style="fill:#261613;fill-opacity:1;fill-rule:nonzero;stroke:none" transform="translate(220.306 345.505)"/></g></svg>