<svg xmlns="http://www.w3.org/2000/svg" xml:space="preserve" width="1645.4061" height="400" viewBox="0 0 1645.4061 399.99999"><defs><clipPath id="a" clipPathUnits="userSpaceOnUse"><path d="M0 841.89h1190.55V0H0Z"/></clipPath><clipPath id="b" clipPathUnits="userSpaceOnUse"><path d="M511.556 665.02c-.636-.275-.57-.736-.385-1.04.301-.484.601-.647.601-.647 5.693 1.877 10.183.561 13.327-1 3.409-1.692 5.949-4.801 5.949-4.801.244 1.208.368 4.077-.779 5.709 0 0-1.05.65-2.752 1.514-2.027 1.028-4.967 1.846-8.27 1.846a19.26 19.26 0 0 1-7.691-1.581"/></clipPath><clipPath id="d" clipPathUnits="userSpaceOnUse"><path d="M510.503 663.294c-.017-1.676 3.47-2.175 3.987-8.639.191-2.404-.613-5.17-1.083-6.432-.466-1.243-1.146-3.469-1.046-5.405.108-2.139 2.212-3.075 4.5-2.701 3.321.541 2.938 1.155 2.938 1.155.477 1.647 1.017 9.139-.342 12.915-1.025 2.845-2.582 5.606-7.472 9.025-1.231.863-.949 1.476-.511 1.771 0 0-.956-.399-.971-1.689"/></clipPath><clipPath id="f" clipPathUnits="userSpaceOnUse"><path d="M530.38 654.482c-1.455-4.619-5.789-9.579-9.081-11.904-5.036-3.562-7.909-1.787-7.909-1.787 2.585-1.938 6.685-3.374 12.775-.122 6.817 3.639 10.274 10.265 9.281 15.64-.407 2.198-2.603 5.962-7.024 7.974 0 0 4.314-2.316 1.958-9.801"/></clipPath><linearGradient id="c" x1="0" x2="1" y1="0" y2="0" gradientTransform="matrix(7.37673 2.8494 2.8494 -7.37673 518.241 660.103)" gradientUnits="userSpaceOnUse" spreadMethod="pad"><stop offset="0" style="stop-opacity:1;stop-color:#69b3e3"/><stop offset="1" style="stop-opacity:1;stop-color:#214975"/></linearGradient><linearGradient id="e" x1="0" x2="1" y1="0" y2="0" gradientTransform="matrix(-.31209 8.88126 9.14668 .32216 515.707 647.227)" gradientUnits="userSpaceOnUse" spreadMethod="pad"><stop offset="0" style="stop-opacity:1;stop-color:#69b3e3"/><stop offset="1" style="stop-opacity:1;stop-color:#214975"/></linearGradient><linearGradient id="g" x1="0" x2="1" y1="0" y2="0" gradientTransform="matrix(-3.82725 -9.03136 -9.18824 3.74229 528.432 655.665)" gradientUnits="userSpaceOnUse" spreadMethod="pad"><stop offset="0" style="stop-opacity:1;stop-color:#69b3e3"/><stop offset="1" style="stop-opacity:1;stop-color:#214975"/></linearGradient></defs><g clip-path="url(#a)" transform="matrix(14.35777 0 0 -14.35777 -7329.686 9570.907)"><path d="M0 0c2.55 0 4.354-1.281 4.354-2.658C4.354-4.037 2.55-5.316 0-5.316c-2.549 0-4.353 1.279-4.353 2.658C-4.353-1.281-2.549 0 0 0m0-7.365c3.813 0 7.646 1.655 7.646 4.707C7.646.396 3.813 2.048 0 2.048c-3.814 0-7.646-1.652-7.646-4.706 0-3.052 3.832-4.707 7.646-4.707" style="fill:#214975;fill-opacity:1;fill-rule:nonzero;stroke:none" transform="translate(573.662 657.542)"/><path d="M0 0h8.48v-5.218h3.09V0h8.431v2.236H0Z" style="fill:#214975;fill-opacity:1;fill-rule:nonzero;stroke:none" transform="translate(563.631 646.995)"/><path d="M0 0h3.113v8.203H0v-2.67h-3.533V3.396H0Z" style="fill:#214975;fill-opacity:1;fill-rule:nonzero;stroke:none" transform="translate(621.953 650.738)"/><path d="M0 0c1.16-1.858 3.623-3.097 5.754-3.641l.869 2c-3.324 1.192-4.602 3.09-4.998 5.97H-1.65c-.397-2.88-1.651-4.778-4.975-5.97l.871-2C-3.625-3.097-1.16-2.012 0 0" style="fill:#214975;fill-opacity:1;fill-rule:nonzero;stroke:none" transform="translate(612.4 654.612)"/><path d="M0 0v1.255h12.645V6.19h-15.77V4.17H9.521V3.107H-3.125V.018c0-1.108.908-2.016 2.027-2.016h13.754V0Z" style="fill:#214975;fill-opacity:1;fill-rule:nonzero;stroke:none" transform="translate(612.447 643.797)"/><path d="M0 0h3.135v13.958H0v-3.651h-3.514V7.814H0Z" style="fill:#214975;fill-opacity:1;fill-rule:nonzero;stroke:none" transform="translate(600.373 644.958)"/><path d="M0 0v4.583h-3.129V-.208c0-1.11.906-2.022 2.022-2.022h13.741V0Z" style="fill:#214975;fill-opacity:1;fill-rule:nonzero;stroke:none" transform="translate(590.903 644.019)"/><path d="M0 0v-2.251h6.639c-.502-2.837-4.566-4.613-8.096-5.173l.961-1.975c4.17.597 7.452 2.113 9.213 4.245C9.967-3.643 10.458-2.181 10.43 0z" style="fill:#214975;fill-opacity:1;fill-rule:nonzero;stroke:none" transform="translate(586.03 658.585)"/><path d="M0 0c0-1.108.946-2.02 2.064-2.02h7.825V.21H3.165v8.554h6.016v2.294H0Z" style="fill:#214975;fill-opacity:1;fill-rule:nonzero;stroke:none" transform="translate(543.19 647.538)"/><path d="M0 0h2.966v9.553h1.588V0h2.965v17.151H4.554v-5.13H2.966v5.13H0Z" style="fill:#214975;fill-opacity:1;fill-rule:nonzero;stroke:none" transform="translate(554.032 641.777)"/></g><g clip-path="url(#b)" transform="matrix(14.35777 0 0 -14.35777 -7329.686 9570.907)"><path d="M511.556 665.02c-.636-.275-.57-.736-.385-1.04.301-.484.601-.647.601-.647 5.693 1.877 10.183.561 13.327-1 3.409-1.692 5.949-4.801 5.949-4.801.244 1.208.368 4.077-.779 5.709 0 0-1.05.65-2.752 1.514-2.027 1.028-4.967 1.846-8.27 1.846a19.26 19.26 0 0 1-7.691-1.581" style="fill:url(#c);stroke:none"/></g><g clip-path="url(#d)" transform="matrix(14.35777 0 0 -14.35777 -7329.686 9570.907)"><path d="M510.503 663.294c-.017-1.676 3.47-2.175 3.987-8.639.191-2.404-.613-5.17-1.083-6.432-.466-1.243-1.146-3.469-1.046-5.405.108-2.139 2.212-3.075 4.5-2.701 3.321.541 2.938 1.155 2.938 1.155.477 1.647 1.017 9.139-.342 12.915-1.025 2.845-2.582 5.606-7.472 9.025-1.231.863-.949 1.476-.511 1.771 0 0-.956-.399-.971-1.689" style="fill:url(#e);stroke:none"/></g><g clip-path="url(#f)" transform="matrix(14.35777 0 0 -14.35777 -7329.686 9570.907)"><path d="M530.38 654.482c-1.455-4.619-5.789-9.579-9.081-11.904-5.036-3.562-7.909-1.787-7.909-1.787 2.585-1.938 6.685-3.374 12.775-.122 6.817 3.639 10.274 10.265 9.281 15.64-.407 2.198-2.603 5.962-7.024 7.974 0 0 4.314-2.316 1.958-9.801" style="fill:url(#g);stroke:none"/></g></svg>