<svg xmlns="http://www.w3.org/2000/svg" width="1108.6093mm" height="320.00012mm" viewBox="0 0 1108.6093 320.00012"><path d="M3329.57-18.9c-77.636 0-129.608 25.36-159.234 59.808-29.34 34.115-35.102 72.054-35.102 94.14 0 45.856 20.656 80.27 40.868 103.917-13.043 10.399-26.872 22.672-40.977 40.217-.01.008-.01.014-.016.021a18.9 18.9 0 0 0-.045.059c-37.116 46.372-45.111 93.364-45.111 124.156 0 59.973 26.767 111.27 69.834 144.146 42.798 32.673 99.393 48.02 161.294 48.02 73.32 0 123.757-23.895 158.776-46.602l17.584 21.032a37.833 37.833 0 0 0 28.996 13.545h132.387a18.9 18.9 0 0 0 .01 0c15.905-.004 29.352-10.233 34.783-23.04 5.431-12.806 3.436-29.584-7.617-41.02a18.9 18.9 0 0 0 0-.009l-84.28-87.172c34.483-63.354 48.204-126.56 48.204-205.926 0-20.649-17.146-37.793-37.795-37.794a18.9 18.9 0 0 0-.01 0h-103.006c6.837-17.057 11.197-36.167 11.197-57.801 0-25.406-7.059-63.3-36.894-95.461-29.818-32.143-79.784-53.905-152.489-54.184h-.014a18.9 18.9 0 0 0-1.344-.053zm609.022 10.644a18.9 18.9 0 0 0-1.817.09c-80.65.476-150.504 32.041-197.945 87.121-47.717 55.4-72.453 132.244-72.453 220.379 0 69.03 15.185 141.381 58.295 198.758 43.31 57.642 115.526 96.082 213.181 96.082 52.601 0 122.128-12.681 176.59-68.828a18.9 18.9 0 0 0 .051-.06c50.35-52.13 54.442-113.859 56.537-144.02 1.499-21.576-16.077-40.413-37.705-40.416h-115.445c-20.208.002-37.137 16.41-37.773 36.607-.826 26.248-8.205 38.845-17.496 47.457-9.056 8.394-21.653 12.934-36.784 12.934-18.57 0-26.873-4.42-35.978-12.948-8.604-8.058-16.384-21.554-21.733-37.597-10.707-32.118-11.42-72.315-11.42-87.26 0-48.614 8.694-91.177 22.596-116.805 14.391-26.53 26.669-35.898 55.047-35.898 12.98 0 19.66 2.421 24.115 5.28 4.455 2.857 7.626 6.847 11.266 13.464 6.363 11.568 8.754 28.1 9.922 37.875a18.9 18.9 0 0 0 0 .008c2.253 18.852 18.535 33.304 37.521 33.307a18.9 18.9 0 0 0 .01 0h111.895a18.9 18.9 0 0 0 .01 0c20.65-.001 37.794-17.146 37.795-37.795 0-60.82-24.402-114.699-66.045-151.52-41.542-36.732-98.623-56.215-162.232-56.215zM18.896-5.568c-20.649 0-37.793 17.145-37.794 37.795v1120.527c0 20.65 17.145 37.794 37.794 37.795h384.176c20.65 0 37.794-17.146 37.795-37.795V32.227c-.001-20.65-17.145-37.794-37.795-37.795Zm496.24 0c-20.649 0-37.793 17.145-37.794 37.795v1120.527c0 20.65 17.145 37.794 37.795 37.795h105.435c333.281 0 604.672-267.943 604.672-598.059 0-330.115-271.39-598.058-604.672-598.058zm784.37 0c-20.65 0-37.794 17.145-37.795 37.795v1120.527c0 20.65 17.146 37.794 37.795 37.795h384.176c20.649 0 37.793-17.146 37.795-37.795V32.227c0-20.65-17.146-37.794-37.795-37.795zm1392.763.14c-20.649.002-37.793 17.146-37.794 37.795a18.9 18.9 0 0 0 0 .008V544.33a18.9 18.9 0 0 0 0 .008c0 20.65 17.145 37.796 37.795 37.797h350.507c20.65-.001 37.794-17.148 37.795-37.797a18.9 18.9 0 0 0 0-.008v-84.965c0-20.65-17.145-37.793-37.795-37.795h-202.95v-62.48H3020.1c20.649-.001 37.793-17.146 37.794-37.795v-83.57c0-20.65-17.145-37.794-37.794-37.795h-180.274v-46.22h195.178c20.65 0 37.794-17.145 37.795-37.794V32.375a18.9 18.9 0 0 0 0-.008c0-20.65-17.146-37.793-37.795-37.795zm686.522 67.414c25.138 5.694 40.29 15.15 49.209 24.764 13.4 14.444 16.72 32.688 16.72 44.047 0 27.668-12.287 47.614-28.87 63.994-16.583 16.38-37.068 27.78-50.743 35.33a18.9 18.9 0 0 0 0 .008c-21.531 11.894-25.88 42.255-8.548 59.711l103.39 104.107a18.9 18.9 0 0 0 .01 0c19 19.124 53.116 11.62 62.332-13.714 16.097-44.277 20.619-78.729 21.948-116.045h28.199c-3.85 59.311-16.985 102.052-49.645 153.744-9.254 14.651-7.26 33.994 4.783 46.453a18.9 18.9 0 0 0 0 .008l42.137 43.576h-25.607l-28.34-33.89c-12.832-15.342-35.953-17.947-51.873-5.84-32.422 24.659-66.297 51.756-142.809 51.756-49.224 0-89.483-12.707-115.424-32.51-26.283-20.065-40.105-45.06-40.105-84.067 0-19.352 3.132-45.176 28.502-76.888.01-.008.01-.016.014-.024 22.208-27.612 42.322-39.305 61.02-51.31a18.9 18.9 0 0 0 0-.008c21.033-13.51 22.98-44.826 3.779-60.834-17.435-14.534-48.033-40.718-48.033-79.305 0-7.877 3.03-28.832 16.814-44.86 9.42-10.953 25.007-21.667 51.814-27.94-4.357 2.59-8.563 5.456-12.423 8.859-17.329 15.27-26.989 37.622-26.989 61.091 0 31.852 17.885 55.439 31.588 71.9 14.18 17.035 27.704 28.69 33.684 33.448 13.135 10.451 31.841 10.936 45.502 1.182 8.91-6.363 24.084-18.022 38.252-34.682 14.062-16.536 29.27-40.19 29.27-70.422 0-23.162-8.894-45.614-25.868-61.396a80.94 80.94 0 0 0-13.687-10.242zm559.8 5.35c48.304 0 86.437 14.503 112.161 37.248 17.21 15.216 29.155 34.048 35.418 57.1h-37.81c-2.633-9.949-6.14-20.647-12.401-32.03-16.41-29.835-51.469-57.904-101.62-57.904-54.442 0-97.83 31.846-121.483 75.45-23.273 42.901-31.75 96.107-31.75 152.843 0 14.944-.649 63.324 15.302 111.17 7.971 23.91 20.479 48.92 41.768 68.86 21.616 20.244 52.087 33.364 87.652 33.364 31.001 0 63.236-9.968 88.176-33.085 17.367-16.098 29.573-38.16 36.113-63.913h40.446c-4.04 18.475-11.94 37.165-30.422 56.309-36.263 37.357-81.134 45.834-122.287 45.834-79.057 0-122.971-26.268-152.747-65.896-29.534-39.309-43.14-95.726-43.14-153.352 0-74.05 20.603-132.112 54.139-171.047 33.638-39.054 79.9-60.951 142.486-60.951zM56.692 70.02h308.586V1114.96H56.691Zm496.24 0h67.641c292.908 0 529.082 233.687 529.082 522.47 0 288.781-236.174 522.468-529.082 522.468h-67.64zm784.372 0h308.584V1114.96h-308.584zm1392.761.149h267.145v7.951h-195.178c-20.65.001-37.794 17.146-37.795 37.795v121.809c0 20.649 17.146 37.793 37.795 37.795h180.274v7.98H2802.03c-20.649.001-37.794 17.146-37.795 37.795v138.07c0 20.65 17.146 37.794 37.795 37.795h202.95v9.375h-274.917zm599.506 54.53c8.067 0 10.347 1.868 11.442 2.886 1.496 1.391 1.742.657 1.742 6.039 0 2.388-3.58 12.417-11.264 21.451-.374.44-.855.784-1.24 1.219-.168-.2-.35-.354-.518-.555-4.37-5.25-8.35-11.386-10.939-16.431-2.59-5.046-3.152-10.255-3.152-7.11 0-4.646-.41-2.813 1.373-4.385 1.034-.911 4.31-3.115 12.556-3.115zm139.422 123.218c-.205 16.25-.657 32.048-2.398 45.451l-23.653-23.822c8.677-6.398 17.248-12.892 26.051-21.629zm-175.533 24.937a18.9 18.9 0 0 0-5.42.797c-5.45.798-10.754 2.385-15.39 5.44a18.9 18.9 0 0 0-.01 0c-36.035 23.748-72.231 61.4-72.231 115.845 0 37.266 15.882 69.76 40.4 91.143 24.25 21.15 55.61 31.617 87.336 31.617 47.061 0 89.378-23.239 118.139-46.793 16.97-13.899 18.373-40.11 2.99-55.748L3320.38 284.143a37.815 37.815 0 0 0-26.92-11.288zm-3.277 88.375 70.88 72.05c-12.427 5.029-24.59 8.827-32.915 8.827-14.907 0-28.759-5.231-37.657-12.992-9.327-8.135-14.49-17.035-14.49-34.178 0-14.247 4.292-23.808 14.182-33.707zM1795.754 730.783c-20.65.001-37.794 17.146-37.795 37.795v384.176c0 20.65 17.146 37.794 37.795 37.795h672.312c20.65 0 37.796-17.146 37.797-37.795V768.578c0-20.65-17.147-37.794-37.797-37.795zm37.795 75.59h596.723v308.586h-596.723z" style="color:#000;font-style:normal;font-variant:normal;font-weight:400;font-stretch:normal;font-size:medium;font-family:sans-serif;font-variant-ligatures:normal;font-variant-position:normal;font-variant-caps:normal;font-variant-numeric:normal;font-variant-alternates:normal;font-variant-east-asian:normal;font-feature-settings:normal;text-indent:0;text-decoration:none;text-decoration-line:none;text-decoration-style:solid;text-decoration-color:#000;letter-spacing:normal;word-spacing:normal;text-transform:none;writing-mode:lr-tb;direction:ltr;text-orientation:mixed;dominant-baseline:auto;baseline-shift:baseline;text-anchor:start;clip-rule:nonzero;display:inline;overflow:visible;visibility:visible;color-interpolation:sRGB;vector-effect:none;fill:#fff;fill-opacity:1;fill-rule:nonzero;stroke:none;stroke-width:37.7953;stroke-linecap:round;stroke-linejoin:round;stroke-miterlimit:4;stroke-dasharray:none;stroke-dashoffset:0;stroke-opacity:1;color-rendering:auto;image-rendering:auto;shape-rendering:auto;text-rendering:auto;enable-background:accumulate;stop-color:#000" transform="matrix(.26458 0 0 .26458 5 5)"/><path d="M419.326 41.005c-36.908 0-41.418 22.67-41.418 30.732 0 15.357 11.81 24.916 16.307 28.664-4.672 3-11.615 7.118-18.545 15.74-8.245 10.3-9.741 20.042-9.741 26.601 0 26.048 21.734 40.845 51.152 40.845 22.852 0 35.222-9.182 43.837-15.734l10.496 12.552h35.028l-27.538-28.481c11.244-17.797 15.18-33.349 15.18-56.02h-27.732c0 14.427-.189 22.86-5.434 37.286l-27.355-27.544c7.119-3.93 26.23-14.238 26.23-35.034 0-9.741-5.427-29.607-40.467-29.607zm161.138 2.815c-38.04 0-62.025 28.475-62.025 71.382 0 33.537 15.174 68.012 61.83 68.012 12.376 0 27.55-2.811 39.543-15.175 10.86-11.244 11.615-23.796 12.174-31.851h-30.544c-.566 17.985-12.18 25.663-24.356 25.663-28.292 0-28.292-38.404-28.292-46.46 0-27.922 8.993-50.403 30.544-50.403 19.67 0 21.356 19.11 21.916 23.796h29.606c0-26.978-20.796-44.964-50.396-44.964zm-1037.086.711v296.473h101.646V44.531Zm338.827 0v296.473H-16.15V44.531Zm-207.531 0v296.473h27.895c82.835 0 149.988-66.365 149.988-148.236S-214.596 44.532-297.431 44.532zm576.033.038v135.457h92.738v-22.482h-63.697v-36.53h57.698V98.903h-57.698v-32.23h61.64V44.57Zm168.619 14.428c8.244 0 13.489 5.056 13.489 12.363 0 8.993-9.741 16.86-13.678 19.67-1.88-1.496-13.496-11.614-13.496-20.047 0-7.119 5.44-11.986 13.685-11.986zm-9.559 59.2 34.103 34.663c-6.181 5.063-16.111 10.12-24.922 10.12-12.363 0-23.796-8.245-23.796-22.483 0-10.118 6.37-16.866 14.615-22.3zM13.504 239.358v101.646h177.883V239.358z" style="color:#000;font-style:normal;font-variant:normal;font-weight:400;font-stretch:normal;font-size:medium;font-family:sans-serif;font-variant-ligatures:normal;font-variant-position:normal;font-variant-caps:normal;font-variant-numeric:normal;font-variant-alternates:normal;font-variant-east-asian:normal;font-feature-settings:normal;text-indent:0;text-decoration:none;text-decoration-line:none;text-decoration-style:solid;text-decoration-color:#000;letter-spacing:normal;word-spacing:normal;text-transform:none;writing-mode:lr-tb;direction:ltr;text-orientation:mixed;dominant-baseline:auto;baseline-shift:baseline;text-anchor:start;clip-rule:nonzero;display:inline;overflow:visible;visibility:visible;color-interpolation:sRGB;vector-effect:none;fill:#0c2340;fill-opacity:1;fill-rule:nonzero;stroke:none;stroke-width:10;stroke-linecap:round;stroke-linejoin:round;stroke-miterlimit:4;stroke-dasharray:none;stroke-dashoffset:0;stroke-opacity:1;color-rendering:auto;image-rendering:auto;shape-rendering:auto;text-rendering:auto;enable-background:accumulate;stop-color:#000" transform="translate(466.623 -31.004)"/></svg>