<svg xmlns="http://www.w3.org/2000/svg" xml:space="preserve" width="1000px" height="214px" x="0px" y="0px" viewBox="0 0 1000 214"><g fill="#00448D"><path d="M206.273 169.427h64.057v6.919c0 6.554-5.669 11.642-12.613 11.869h-58.984c-6.96 0-12.605-5.315-12.605-11.869v-40.583c0-6.547 5.987-12.22 12.94-12.22h101.055v-24.59l-114.865-.03c-15.522 0-28.121 12.318-28.121 27.476v58.938c0 15.188 10.788 25.517 28.797 27.483h85.453c18.135-1.967 28.79-12.295 28.79-27.483v-44.403h-93.902v28.493zM579.006 175.526c0 6.349-5.908 11.521-13.184 11.521h-61.231c-7.275 0-13.18-5.172-13.18-11.521v-37.978c-.133-7.374 6.034-13.031 13.871-12.925h60.54c7.275 0 13.184 5.164 13.184 11.527v39.376zm.547-76.413h-88.688c-18.647 1.921-29.897 12.265-29.897 27.376v58.695c1.871 17.217 11.584 25.57 30.607 27.369h87.979c20.102-1.04 29.898-12.249 29.898-27.369V126.49c-.001-15.112-11.841-25.455-29.899-27.377M802.783 99.25h30.201v113.388h-30.201zM701.203 182.884l-49.62-82.404h-34.241l67.648 112.371h32.405l67.678-112.371h-34.226zM356.657 100.313h-28.888v110.473h122.08v-24.059h-93.192zM970.826 140.745v-.046l-20.747-.015-50.896-.03s-8.398.767-8.437-4.884c-.008-1.139.083-5.384.083-6.288 0-6.303 7.488-5.604 7.488-5.604h97.706V99.053H888.452c-16.578 0-29.275 6.493-29.032 27.666v15.522c-.501 23.762 18.72 26.352 24.62 26.822h3.312l75.242.046s5.271-.426 5.271 6.295c0 1.011.022 4.777.038 6.083.152 7.146-5.65 6.493-5.65 6.493h-99.339v24.97h107.86c16.661-.987 28.227-6.706 28.227-27.688v-17.019c-.001-20.261-11.506-26.519-28.175-27.498M51.064 29.224H17.278V1.058H1v73.253h16.278V43.707h33.786v30.604h16.434V1.058H51.064zM111.932 32.771 92.616 1.05H73.771l29.31 44.821v28.44h17.702V47.086L150.415 1.05h-18.997zM221.986 62.714h.079v-.562c.239-2.263 0-3.941 0-3.941V1.369H206.93v53.303c0 5.468-2.1 5.787-2.1 5.787h-33.17V1.369h-15.136V74.311h50.406c11.471.106 14.395-6.797 15.056-11.597M303.528 12.973h-.076c-.66-4.8-3.576-11.71-15.055-11.597h-50.392V74.31h15.132V15.213h33.159s2.101.326 2.101 5.794v53.304h15.131V17.469s.243-1.67 0-3.941v-.555zM369.4 21.007v33.657c0 5.468-2.085 5.787-2.085 5.787h-34.17v-45.23h34.17s2.085.326 2.085 5.786m0 53.304c11.479.099 14.409-6.797 15.07-11.604h.068v-.562c.243-2.263 0-3.941 0-3.941V17.468s.243-1.678 0-3.949v-.54h-.068c-.661-4.807-3.585-11.71-15.07-11.611h-51.387v72.941H369.4zM415.542 15.213h32.947v22.273h-35.047V21.007c0-5.467 2.1-5.794 2.1-5.794m-17.235 2.256v56.842h15.136V50.579h35.047v23.732h16.339V1.369h-51.386c-11.479-.106-14.402 6.797-15.056 11.604h-.08v.554c-.24 2.271 0 3.942 0 3.942M480.24 1.369h17.22v72.942h-17.22z"/></g></svg>