<svg xmlns="http://www.w3.org/2000/svg" xmlns:xlink="http://www.w3.org/1999/xlink" xml:space="preserve" width="1000px" height="291.496px" x="0px" y="0px" viewBox="0 0 1000 291.496"><defs><path id="a" d="M0 138.964h7.169c.022-24.051 8.43-45.95 23.293-61.342L20.008 66.129C7.258 87.957 0 113.244 0 138.964"/></defs><clipPath id="b"><use xlink:href="#a" overflow="visible"/></clipPath><linearGradient id="c" x1="250.8726" x2="258.484" y1="519.0508" y2="519.0508" gradientTransform="scale(-7.9064 7.9064) rotate(45 737.166 -43.5)" gradientUnits="userSpaceOnUse"><stop offset="0" style="stop-color:#fcb811"/><stop offset="1" style="stop-color:#c3be2f"/></linearGradient><path fill="url(#c)" d="m66.876 102.547-51.647 51.654-51.65-51.654 51.65-51.651z" clip-path="url(#b)"/><defs><path id="d" d="M0 138.964c0 26.163 4.676 50.466 13.883 71.685l14.715-20.168c-13.065-12.354-21.429-29.074-21.429-51.395v-.122H0z"/></defs><clipPath id="e"><use xlink:href="#d" overflow="visible"/></clipPath><linearGradient id="f" x1="151.1997" x2="158.8159" y1="501.8223" y2="501.8223" gradientTransform="scale(6.7768 -6.7768) rotate(-45 -558.163 422.983)" gradientUnits="userSpaceOnUse"><stop offset="0" style="stop-color:#c3be2f"/><stop offset="1" style="stop-color:#80c241"/></linearGradient><path fill="url(#f)" d="m14.297 124.664 50.141 50.149-50.141 50.136-50.145-50.136z" clip-path="url(#e)"/><defs><path id="g" d="M243.8 134.167c18.5.284 29.837 14.536 29.459 32.751h7.195c0-17.941-8.445-34.283-23.315-46.512L243.8 134.167z"/></defs><clipPath id="h"><use xlink:href="#g" overflow="visible"/></clipPath><linearGradient id="i" x1="166.6177" x2="174.2325" y1="520.0283" y2="520.0283" gradientTransform="scale(5.764 -5.764) rotate(-45 -550.259 397.427)" gradientUnits="userSpaceOnUse"><stop offset="0" style="stop-color:#6ccef5"/><stop offset="1" style="stop-color:#00b9c5"/></linearGradient><path fill="url(#i)" d="m262.126 102.084 41.581 41.589-41.581 41.577-41.586-41.577z" clip-path="url(#h)"/><defs><path id="j" d="M273.26 166.918c-.352 14.975-8.375 27.543-26.13 36.873l18.769 25.805c9.137-16.875 14.556-37.598 14.556-62.678h-7.195z"/></defs><clipPath id="k"><use xlink:href="#j" overflow="visible"/></clipPath><linearGradient id="l" x1="251.4834" x2="259.0971" y1="538.1934" y2="538.1934" gradientTransform="scale(-5.825 5.825) rotate(45 714.13 -78.063)" gradientUnits="userSpaceOnUse"><stop offset="0" style="stop-color:#00b9c5"/><stop offset="1" style="stop-color:#00a89b"/></linearGradient><path fill="url(#l)" d="m311.79 198.264-47.996 47.992-48.007-47.992 48.007-48.006z" clip-path="url(#k)"/><defs><path id="m" d="M65.515 148.963c-11.985 0-21.192-13.184-21.192-25.975 0-1.324.134-2.612.256-3.858l-6.662-1.136a46.838 46.838 0 0 0-.777 8.604c0 42.856 31.968 70.253 72.336 70.253 76.675 0 99.473-62.685 133.826-62.685h.5l13.339-13.761c-16.561-13.65-41.149-22.21-70.989-22.21-60.712.001-93.071 50.768-120.637 50.768"/></defs><clipPath id="n"><use xlink:href="#m" overflow="visible"/></clipPath><linearGradient id="o" x1="183.542" x2="191.1543" y1="564.6768" y2="564.6768" gradientTransform="matrix(25.0479 0 0 -25.0479 -4543.078 14291.48)" gradientUnits="userSpaceOnUse"><stop offset="0" style="stop-color:#0071bb"/><stop offset="1" style="stop-color:#6ccef5"/></linearGradient><path fill="url(#o)" d="M37.139 98.196h220v98.655h-220z" clip-path="url(#n)"/><defs><path id="p" d="m20.008 66.129 10.454 11.493c13.439-13.931 32.227-22.527 55.032-22.527 44.308 0 75.084 33.555 114.65 33.555 47.471 0 73.701-23.116 80.311-68.282l-7.195-1.188c-2.031 11.963-9.817 26.331-23.804 26.331-13.176 0-27.147-11.575-47.496-22.75C181.57 11.164 158.192 0 129.021 0 82.09 0 42.532 27.636 20.008 66.129"/></defs><clipPath id="q"><use xlink:href="#p" overflow="visible"/></clipPath><linearGradient id="r" x1="188.1875" x2="195.8018" y1="567.8525" y2="567.8525" gradientTransform="matrix(34.2061 0 0 -34.2061 -6415.625 19468.326)" gradientUnits="userSpaceOnUse"><stop offset="0" style="stop-color:#fcb811"/><stop offset="0.5977" style="stop-color:#f5831b"/><stop offset="1" style="stop-color:#f16421"/></linearGradient><path fill="url(#r)" d="M20.008 0h260.446v88.649H20.008z" clip-path="url(#q)"/><defs><path id="s" d="M13.883 210.648c21.155 48.658 66.31 80.848 133.907 80.848 44.696 0 94.201-17.727 118.108-61.9l-18.769-25.805c-22.009 11.6-59.112 18.229-115.312 18.229-34.335 0-77.736-7.443-103.22-31.539l-14.714 20.167z"/></defs><clipPath id="t"><use xlink:href="#s" overflow="visible"/></clipPath><linearGradient id="u" x1="185.4277" x2="193.0432" y1="562.1113" y2="562.1113" gradientTransform="matrix(28.7064 0 0 -28.7064 -5292.547 16377.21)" gradientUnits="userSpaceOnUse"><stop offset="0" style="stop-color:#80c241"/><stop offset="1" style="stop-color:#00a89b"/></linearGradient><path fill="url(#u)" d="M13.883 190.48h252.016v101.016H13.883z" clip-path="url(#t)"/><path fill="#0071BB" d="M398.312 218.891c-44.696 0-69.354-29.342-69.354-72.79 0-43.665 26.756-73.169 70.143-73.169 17.382 0 31.846 4.076 43.072 10.361l-4.72 30.402c-10.665-6.747-23.042-11.966-37.557-11.966-24.218 0-36.033 17.896-36.033 44.141 0 26.634 12.24 45.122 36.417 45.122 7.854 0 13.28-1.443 19.065-4.477v-25.072h-24.492l-4.091-25.934h58.908v68.51c-14.634 9.604-32.026 14.872-51.358 14.872M516.594 217.906c-19.006 0-34.9-4.076-49.168-10.543l5.131-29.799c14.497 7.73 30.595 13.035 44.666 13.035 9.929 0 16.949-4.307 16.949-12.68 0-7.961-4.165-11.66-23.926-19.146-28.149-10.832-40.368-20.005-40.368-43.272 0-27.066 21.215-41.504 48.129-41.504 18.393 0 30.215 3.403 42.474 9.296l-5.356 29.338c-12.599-7.295-25.901-11.375-36.702-11.375-10.558 0-15.714 4.487-15.714 10.993 0 7.136 3.921 10.661 21.447 17.331 30.577 11.23 42.784 21.861 42.784 44.293-.001 30.606-22.411 44.033-50.346 44.033"/><path fill="#646569" d="M704.457 76.538h15.137v138.778h-15.137zM627.545 136.733h51.284V79.561h-67.205v13.572h52.091v30.847h-51.262v52.187c0 3.994 3.439 7.494 7.546 7.494h69.365V169.96h-61.819v-33.227zM846.398 76.538h14.545v138.778h-14.545zM820.668 123.58H802.12v13.575h18.548v78.161h14.619V76.542h-14.619z"/><path fill="#646569" d="M764.427 136.733h31.671v-12.754h-31.671V93.133h37.701V79.561h-52.794v96.605c0 3.994 3.492 7.494 7.547 7.494h50.263v-13.701h-42.717v-33.226zM984.16 76.546h15.129v69.458H984.16zM957.934 109.261c0-17.893-16.453-32.715-36.65-32.715-20.212 0-36.695 14.822-36.695 32.715 0 17.974 16.483 32.763 36.695 32.763 20.196-.001 36.65-14.79 36.65-32.763m-57.936 0c0-10.68 9.537-19.535 21.285-19.535 11.733 0 21.248 8.855 21.248 19.535 0 10.724-9.515 19.624-21.248 19.624-11.748 0-21.285-8.901-21.285-19.624M920.816 189.223h78.473v-37.227h-94.312v13.102h79.183v11.748h-78.436v30.977c0 3.996 3.447 7.494 7.554 7.494H1000v-13.102h-79.184v-12.992z"/></svg>