<svg xmlns="http://www.w3.org/2000/svg" xml:space="preserve" width="407.89999" height="75.699997" viewBox="0 0 407.89999 75.699996"><defs><clipPath id="a" clipPathUnits="userSpaceOnUse"><path d="M0 651.969h898.583V0H0Z"/></clipPath></defs><g clip-path="url(#a)" transform="matrix(1.33333 0 0 -1.33333 -506.271 464.825)"><path d="M0 0c-.936 9.134-11.344 16.621-23.244 16.722-11.901.098-20.795-7.232-19.86-16.37.936-9.141 11.344-16.629 23.247-16.723C-7.957-16.473.932-9.139 0 0m-39.373 2.287c-.815 7.367 6.914 13.281 17.256 13.197C-11.779 15.404-2.736 9.367-1.926 2c.815-7.367-6.91-13.281-17.256-13.199-10.336.082-19.381 6.113-20.191 13.486" style="fill:#f7bb82;fill-opacity:1;fill-rule:nonzero;stroke:none" transform="translate(442.157 317.272)"/><path d="M0 0c-6.812-7.121-6.926-18.07-.254-24.461 6.676-6.394 17.613-5.799 24.426 1.316 6.818 7.118 6.926 18.067.252 24.465C17.752 7.71 6.816 7.117 0 0m21.713-20.107C15.854-26.23 6.447-26.738.707-21.238-5.043-15.746-4.945-6.32.922-.193c5.861 6.12 15.273 6.622 21.012 1.13 5.744-5.496 5.646-14.921-.221-21.044" style="fill:#f4a051;fill-opacity:1;fill-rule:nonzero;stroke:none" transform="translate(402.471 320.82)"/><path d="M0 0c-12.652-10.014-15.869-24.521-7.195-32.408 8.675-7.883 25.965-6.16 38.617 3.856C44.068-18.537 47.287-4.025 38.615 3.857 29.934 11.744 12.648 10.018 0 0m11.318 3.926c12.192 4.572 24.246-.053 26.93-10.322 2.684-10.273-5.029-22.305-17.223-26.871-12.189-4.575-24.242.055-26.927 10.324-2.68 10.269 5.033 22.3 17.22 26.869" style="fill:#ed7100;fill-opacity:1;fill-rule:nonzero;stroke:none" transform="translate(391.77 339.813)"/><path d="M0 0h3.372v-2.556H0v-8.242h-3.237V5.984H0Zm-13.654-7.153c.851 0 1.581.236 2.189.707.608.471.911 1.061.911 1.768 0 .689-.303 1.269-.911 1.741-.608.471-1.338.707-2.189.707-.853 0-1.583-.236-2.191-.707-.607-.472-.911-1.052-.911-1.741 0-.707.304-1.297.911-1.768.608-.471 1.338-.707 2.191-.707m-3.754 13.545h7.507V4.026h-7.507zm4.869-21.216H.108v-2.502h-13.436c-2.901 0-4.353 1.351-4.353 4.053v2.611h3.265v-2.23c0-1.288.625-1.932 1.877-1.932m-1.115 5.386c-1.85 0-3.356.467-4.516 1.4-1.161.935-1.741 2.054-1.741 3.36 0 1.287.58 2.398 1.741 3.332 1.16.933 2.666 1.401 4.516 1.401 1.849 0 3.354-.468 4.514-1.401 1.161-.934 1.742-2.045 1.742-3.332 0-1.306-.581-2.425-1.742-3.36-1.16-.933-2.665-1.4-4.514-1.4M-6.338.843h-14.634v2.34h14.634z" style="fill:#231815;fill-opacity:1;fill-rule:nonzero;stroke:none" transform="translate(471.839 325.882)"/><path d="M0 0c.853 0 1.582.235 2.189.707.608.471.912 1.061.912 1.768 0 .689-.304 1.269-.912 1.741-.607.471-1.336.707-2.189.707s-1.582-.236-2.189-.707c-.608-.472-.912-1.052-.912-1.741 0-.707.304-1.297.912-1.768C-1.582.235-.853 0 0 0m-3.753 13.544h7.507v-2.366h-7.507ZM7.263 7.996H-7.371v2.34H7.263ZM-1.604-2.149c-1.162.199-2.149.634-2.965 1.305-1.125.925-1.687 2.031-1.687 3.319 0 1.287.58 2.398 1.741 3.332C-3.354 6.74-1.85 7.208 0 7.208c1.85 0 3.354-.468 4.516-1.401 1.16-.934 1.74-2.045 1.74-3.332 0-1.288-.562-2.394-1.687-3.319-.798-.652-1.767-1.088-2.91-1.305v-2.475h3.618c3.264 0 4.896 1.26 4.896 3.78v13.981h3.237V5.304h3.372V2.72H13.41v-12.948h-3.237v4.379c-.98-.87-2.43-1.305-4.352-1.305H-7.888v2.53h6.284z" style="fill:#231815;fill-opacity:1;fill-rule:nonzero;stroke:none" transform="translate(485.302 318.73)"/><path d="M523.49 331.867h3.183v-23.365h-3.183zm-16.646-9.33c0-2.194.253-3.858.761-4.991.508-1.134 1.269-1.7 2.285-1.7 1.07 0 1.876.566 2.42 1.7.545 1.133.817 2.797.817 4.991 0 2.212-.272 3.889-.817 5.032-.544 1.142-1.35 1.713-2.42 1.713-1.016 0-1.777-.571-2.285-1.713-.508-1.143-.761-2.82-.761-5.032m-3.128.027c0 2.865.525 5.122 1.577 6.772 1.052 1.651 2.594 2.476 4.624 2.476 2.086 0 3.663-.825 4.733-2.476.888-1.359 1.405-3.128 1.55-5.303h2.313v7.834h3.1v-23.365h-3.1v12.92h-2.286c-.127-2.321-.652-4.198-1.577-5.63-1.07-1.65-2.647-2.476-4.733-2.476-2.03 0-3.572.826-4.624 2.476-1.052 1.649-1.577 3.907-1.577 6.772" style="fill:#231815;fill-opacity:1;fill-rule:nonzero;stroke:none"/><path d="M0 0c0-2.194.308-3.858.925-4.991.616-1.134 1.55-1.7 2.801-1.7 1.269 0 2.216.566 2.842 1.7.626 1.133.939 2.797.939 4.991 0 2.211-.313 3.889-.939 5.032-.626 1.142-1.573 1.713-2.842 1.713-1.251 0-2.185-.571-2.801-1.713C.308 3.889 0 2.211 0 0m-3.237.027c0 2.865.602 5.122 1.808 6.772C-.223 8.45 1.505 9.275 3.753 9.275s3.98-.825 5.195-2.476c.98-1.359 1.56-3.128 1.741-5.303h4.325V9.33h3.237v-23.365h-3.237v12.92h-4.297c-.146-2.322-.735-4.198-1.769-5.63-1.215-1.651-2.947-2.476-5.195-2.476s-3.976.825-5.182 2.476C-2.635-5.096-3.237-2.838-3.237.027" style="fill:#231815;fill-opacity:1;fill-rule:nonzero;stroke:none" transform="translate(534.152 322.537)"/><path d="M0 0c.816 0 1.224-.408 1.224-1.225v-6.88h-15.259v-2.149c0-.834.489-1.251 1.469-1.251H1.333v-2.502h-7.508v-3.89H4.107v-2.584h-23.854v2.584h10.254v3.89h-3.59c-2.793 0-4.188 1.187-4.188 3.562v4.814h15.258v3.128h-15.258V0Z" style="fill:#231815;fill-opacity:1;fill-rule:nonzero;stroke:none" transform="translate(576.257 331.268)"/><path d="M0 0c0-3.409.943-5.983 2.829-7.724 1.759-1.614 3.727-2.493 5.902-2.639v-2.502c-2.973.091-5.629 1.061-7.969 2.91a9.6 9.6 0 0 0-2.394 2.802 9.971 9.971 0 0 0-2.421-2.802c-2.339-1.849-4.995-2.819-7.968-2.91v2.502c2.175.146 4.142 1.025 5.902 2.639C-4.233-5.983-3.291-3.409-3.291 0v1.278H0Zm10.282-19.338h-23.854v2.639h23.854z" style="fill:#231815;fill-opacity:1;fill-rule:nonzero;stroke:none" transform="translate(596.955 330.261)"/><path d="M629.921 331.867h3.129v-23.365h-3.129zm-4.678 0h3.073v-23.365h-3.073v13.192h-2.965v2.611h2.965zm-9.792-15.477h2.665v12.566h-2.665zm8.323 0v-2.53h-13.763v2.53h2.366v12.566h-2.04v2.53h12.921v-2.53h-2.04V316.39ZM654.346 331.867h3.264v-23.365h-3.264zm-14.225-9.33c0-2.194.308-3.858.925-4.991.616-1.134 1.55-1.7 2.8-1.7 1.27 0 2.217.566 2.843 1.7.626 1.133.939 2.797.939 4.991 0 2.212-.313 3.889-.939 5.032-.626 1.142-1.573 1.713-2.843 1.713-1.25 0-2.184-.571-2.8-1.713-.617-1.143-.925-2.82-.925-5.032m-3.237.027c0 2.865.602 5.122 1.808 6.772 1.206 1.651 2.934 2.476 5.182 2.476s3.975-.825 5.181-2.476c1.207-1.65 1.809-3.907 1.809-6.772s-.602-5.123-1.809-6.772c-1.206-1.65-2.933-2.476-5.181-2.476s-3.976.826-5.182 2.476c-1.206 1.649-1.808 3.907-1.808 6.772" style="fill:#231815;fill-opacity:1;fill-rule:nonzero;stroke:none"/><path d="M0 0c0-3.409.943-5.983 2.829-7.724 1.759-1.614 3.727-2.493 5.902-2.639v-2.502c-2.973.091-5.629 1.061-7.969 2.91a9.6 9.6 0 0 0-2.394 2.802 9.971 9.971 0 0 0-2.421-2.802c-2.339-1.849-4.995-2.819-7.968-2.91v2.502c2.175.146 4.142 1.025 5.902 2.639C-4.233-5.983-3.291-3.409-3.291 0v1.278H0Zm10.282-19.338h-23.854v2.639h23.854z" style="fill:#231815;fill-opacity:1;fill-rule:nonzero;stroke:none" transform="translate(675.235 330.261)"/></g></svg>