<svg xmlns="http://www.w3.org/2000/svg" xml:space="preserve" x="0px" y="0px" viewBox="0 0 1098 163"><path fill="#012F8B" d="M465.425 65.293c0-4.764-1.27-9.248-3.505-13.177l9.762.088V36.573l-25.026-.028-6.288-14.838-.487.48h-21.032l6.096 14.386h-25.563v15.543h9.762c-2.233 3.929-3.505 8.413-3.505 13.177 0 15.488 13.384 28.045 29.893 28.045s29.893-12.556 29.893-28.045zm-43.102 1.014c0-7.091 5.914-12.839 13.208-12.839 7.294 0 13.208 5.749 13.208 12.839s-5.914 12.839-13.208 12.839c-7.294 0-13.208-5.748-13.208-12.839zm56.629-39.18v76.026l17.648-.796v-30.5l15.884.05v-14.33H496.6l.065-30.45h-17.713zm-65.299 71.649v34.033h83.045v-14.33h-65.397V98.776h-17.648zm120.009-71.649v14.33h64.515s-.327 21.892-4.184 23.286h-72.555l-.131 14.329h46.082l-.196 16.121h-35.297v14.33h67.064v23.286h17.648V95.292l-31.767-.099V79.072h44.121v-14.33h-17.648s3.53-1.791 5.295-37.616h-82.948v.001zm112.95 1.791v14.33h35.297s0 30.45-38.827 32.242l5.034 16.121s31.636-4.578 44.186-26.47c0 0 16.865 21.096 44.709 26.47l4.903-16.121s-33.532-1.791-38.827-32.242h37.062v-14.33h-93.537z"/><path fill="#012F8B" d="M681.909 86.237v23.286h-44.121v14.33h109.42v-14.33h-44.121V86.237h-21.178zm98.831-57.319s7.059 34.033-28.237 48.363l8.04 14.33s25.492-10.747 29.021-25.076c0 0 6.078 12.538 28.629 25.076l8.432-16.121s-31.767-5.374-26.473-46.571H780.74v-.001z"/><path fill="#012F8B" d="M817.802 45.039V61.16h17.648v42.989h19.413V25.335H835.58l-.13 19.704h-17.648zm-45.886 50.154v37.616h84.712v-14.33h-67.064V95.193h-17.648zm114.126-69.858 5.884 17.913h-21.178v14.329h58.24V43.248h-19.413l-5.361-17.913h-18.172zm14.708 39.223c-15.594 0-28.238 11.67-28.238 26.065 0 14.396 12.642 26.065 28.237 26.065 15.595 0 28.237-11.67 28.237-26.065 0-14.395-12.642-26.065-28.236-26.065zm.302 38.15c-7.054 0-12.773-5.41-12.773-12.084s5.719-12.084 12.773-12.084 12.773 5.41 12.773 12.084c.001 6.673-5.717 12.084-12.773 12.084zm120.753-74.247c-15.594 0-28.237 11.67-28.237 26.065 0 14.396 12.642 26.065 28.237 26.065 15.595 0 28.237-11.67 28.237-26.065-.001-14.395-12.643-26.065-28.237-26.065zm.302 38.151c-7.054 0-12.773-5.41-12.773-12.084s5.719-12.084 12.773-12.084 12.773 5.41 12.773 12.084c.002 6.673-5.717 12.084-12.773 12.084zm33.066 17.377c-17.056 0-30.885 11.67-30.885 26.065 0 14.396 13.827 26.065 30.885 26.065 17.057 0 30.885-11.67 30.885-26.065-.001-14.395-13.829-26.065-30.885-26.065zm.331 38.149c-7.715 0-13.971-5.41-13.971-12.084s6.255-12.084 13.971-12.084c7.715 0 13.971 5.41 13.971 12.084s-6.254 12.084-13.971 12.084zM936.046 25.335v107.473h15.884V82.655h10.589v50.154h15.884V25.335h-15.884v46.572H951.93V25.335h-15.884zm130.599 1.792v53.736h15.884v-7.165h15.884V61.16h-15.884V50.413h15.884V37.875h-15.884V27.127h-15.884z"/><path fill="#00823D" d="M.412 163.044h93.724L47.637 82.03.412 163.044"/><path fill="#00AE42" d="m.412.044 140.671 81.795-46.947 81.205L.412.044"/><path fill="#38D430" d="M.412.044h93.937l46.733 81.795L.412.044"/><path fill="#002F87" d="M247.732 30.372v58.985l-10.38-19.154h-31.788V30.372h-24.003v104.474h24.003V91.751h42.167v43.096h24.003V30.372h-24.002zM339.164 30.372h-48.615v104.474h48.615c21.877 0 39.612-23.387 39.612-52.237s-17.735-52.237-39.612-52.237zm-3.853 86.844h-20.759V48.655h20.759c11.107 0 20.111 15.348 20.111 34.281s-9.004 34.28-20.111 34.28z"/></svg>