<svg xmlns="http://www.w3.org/2000/svg" xml:space="preserve" width="435.6073mm" height="65.944946mm" viewBox="0 0 435.6073 65.944946"><path d="M96.26 128.529h65.481v-65.49H96.26Zm0 0" style="fill:#008fcf;fill-opacity:1;fill-rule:nonzero;stroke:none;stroke-width:1.91318" transform="translate(-96.26 -63.04)"/><path d="m96.26 63.04 16.366 16.374L129 63.04zm0 0" style="fill:#008fcf;fill-opacity:1;fill-rule:nonzero;stroke:none;stroke-width:1.91318" transform="translate(-96.26 -63.04)"/><path d="M96.26 63.04v32.74l16.366-16.366Zm0 0" style="fill:#009cd7;fill-opacity:1;fill-rule:nonzero;stroke:none;stroke-width:1.91318" transform="translate(-96.26 -63.04)"/><path d="m129 95.78-16.366-16.374L96.26 95.78Zm0 0" style="fill:#008fcf;fill-opacity:1;fill-rule:nonzero;stroke:none;stroke-width:1.91318" transform="translate(-96.26 -63.04)"/><path d="M129 95.78V63.04l-16.366 16.366zm0 0" style="fill:#007fc7;fill-opacity:1;fill-rule:nonzero;stroke:none;stroke-width:1.91318" transform="translate(-96.26 -63.04)"/><path d="M129 63.04v32.74l16.367-16.366zm0 0" style="fill:#006eba;fill-opacity:1;fill-rule:nonzero;stroke:none;stroke-width:1.91318" transform="translate(-96.26 -63.04)"/><path d="m161.741 95.78-16.367-16.374L129 95.78Zm0 0" style="fill:#004a97;fill-opacity:1;fill-rule:nonzero;stroke:none;stroke-width:1.91318" transform="translate(-96.26 -63.04)"/><path d="m96.26 95.78 16.366 16.382L129 95.78Zm0 0" style="fill:#007fc7;fill-opacity:1;fill-rule:nonzero;stroke:none;stroke-width:1.91318" transform="translate(-96.26 -63.04)"/><path d="M96.26 95.78v32.741l16.366-16.359Zm0 0" style="fill:#006eba;fill-opacity:1;fill-rule:nonzero;stroke:none;stroke-width:1.91318" transform="translate(-96.26 -63.04)"/><path d="m129 128.521-16.366-16.374-16.374 16.374zm0 0" style="fill:#005eae;fill-opacity:1;fill-rule:nonzero;stroke:none;stroke-width:1.91318" transform="translate(-96.26 -63.04)"/><path d="M129 128.521v-32.74l-16.366 16.366zm0 0" style="fill:#00519c;fill-opacity:1;fill-rule:nonzero;stroke:none;stroke-width:1.91318" transform="translate(-96.26 -63.04)"/><path d="m129 95.78 16.367 16.382 16.374-16.382zm0 0" style="fill:#19358a;fill-opacity:1;fill-rule:nonzero;stroke:none;stroke-width:1.91318" transform="translate(-96.26 -63.04)"/><path d="M129 95.78v32.741l16.367-16.359zm0 0" style="fill:#004a97;fill-opacity:1;fill-rule:nonzero;stroke:none;stroke-width:1.91318" transform="translate(-96.26 -63.04)"/><path d="m161.741 128.521-16.367-16.374L129 128.521zM161.741 128.521v-32.74l-16.367 16.366zm0 0" style="fill:#19358a;fill-opacity:1;fill-rule:nonzero;stroke:none;stroke-width:1.91318" transform="translate(-96.26 -63.04)"/><path d="m129 63.04 16.367 16.374 16.374-16.374zm0 0" style="fill:#005eae;fill-opacity:1;fill-rule:nonzero;stroke:none;stroke-width:1.91318" transform="translate(-96.26 -63.04)"/><path d="M161.741 95.78V63.04l-16.367 16.366zm0 0" style="fill:#00519c;fill-opacity:1;fill-rule:nonzero;stroke:none;stroke-width:1.91318" transform="translate(-96.26 -63.04)"/><path d="m161.741 103.971-20.963-19.969-31.821 31.897 11.613 11.606 20.208-19.91 20.963 20.859zm0 0" style="fill:#fff;fill-opacity:1;fill-rule:nonzero;stroke:none;stroke-width:1.91318" transform="translate(-96.26 -63.04)"/><path d="M531.867 107.14v-6.076h-63.075l2.077 6.076h25.006v20.051h9.192V107.14Zm-7.9-11.785 2.377-4.754-.254-.067c-.005 0-4.312-1.009-9.11-3.557-4.738-2.511-9.932-6.502-11.95-12.45h18.474v-5.583h-46.35l2.085 5.582h16.479c-2.018 5.95-7.204 9.94-11.943 12.45-4.805 2.55-9.102 3.558-9.11 3.558l-.26.067 2.376 4.753.142-.007c12.944-.86 21.598-10.254 23.451-12.428 1.854 2.174 10.508 11.568 23.452 12.428zm-71.781 31.836h9.14V67.725h-9.148zm-21.763-37.442c-.209-.837-.276-3.385-.276-6.195 0-2.817.067-5.919.12-7.989h13.056V69.93h-36.149l2.078 5.635h12.405c.055 2.07.12 5.18.12 7.99.005 2.817-.067 5.357-.276 6.194-1.435 6.046-5.426 10.21-9.073 12.87-3.64 2.653-7.145 3.863-7.145 3.863l2.384 4.76.157-.029c11.868-2.466 16.935-10.216 18.138-12.39 1.203 2.174 6.27 9.924 18.138 12.39l.157.03 2.384-4.76s-3.505-1.211-7.145-3.864c-3.647-2.66-7.638-6.824-9.073-12.87M383.97 97.94h17.047v-5.567h-61.58l2.025 5.567h14.961v10.366c-1.898 2.13-3.027 4.716-3.027 7.526.005 7.301 7.556 13.138 16.8 13.153 9.245-.016 16.793-5.852 16.808-13.153 0-2.803-1.136-5.396-3.034-7.526zm-7.361 5.732a20.729 20.729 0 0 0-6.412-.994c-2.272 0-4.432.352-6.413.994V97.94h12.825zm1.621 12.16c-.005 3.721-3.572 6.785-8.033 6.793-4.462-.008-8.02-3.072-8.027-6.793.005-3.722 3.565-6.794 8.027-6.794 4.461 0 8.026 3.072 8.033 6.794m8.11-37.763c-.006-7.018-7.265-12.623-16.143-12.63-8.879.007-16.128 5.612-16.135 12.63.005 7.025 7.256 12.622 16.135 12.637 8.878-.015 16.135-5.612 16.142-12.637m-8.437 0c-.005 3.572-3.43 6.516-7.705 6.516s-7.69-2.944-7.698-6.516c.005-3.565 3.423-6.51 7.698-6.51 4.274 0 7.697 2.945 7.705 6.51M271.592 97.933h61.132v-5.59H321.59v-23.22h-42.284l2.077 5.59h31.082v17.622l-42.897.008zm-8.243 13.43.005-.113c-.005-7.01-5.052-12.293-12.376-14.558l-1.345-.418 1.24-.703c4.313-2.488 6.577-6.128 6.592-11.113v-.194c0-3.7-1.472-7.458-4.574-10.276-3.079-2.795-7.735-4.64-14.057-4.693h-16.628v57.627h19.483c7.48 0 12.899-2.063 16.449-5.067 3.52-2.974 5.186-6.868 5.208-10.493m-15.73-26.328c-.055 4.872-4.23 9.431-8.677 9.454l-6.674.037V75.363s1.188-.082 2.511-.082c1.45 0 3.423.067 5.329.359 3.781.59 7.466 4.768 7.51 9.23zm4.708 25.611c0 5.142-3.625 8.714-7.735 9.573-1.24.262-2.25.322-2.758.322l-9.566-.015v-19.797l9.589-.016c1.262.008 2.735.322 2.757.33 4.118.881 7.675 4.94 7.713 9.528zm-46.074 11.913c3.035-3.349 4.798-8.31 4.806-15.074h-.005V69.28h-10.455v38.189c0 4.08-.95 6.83-2.512 8.55-1.539 1.696-3.594 2.309-5.657 2.324h-.112c-4.133.008-7.376-1.712-10.067-4.88l-5.747 6.277c3.535 4.417 8.677 8.019 16.442 8.026 5.612 0 10.2-1.786 13.31-5.208m116.12-18.4H279.88v17.286c.24 3.101 2.579 5.575 5.665 5.784l36.829-.008zm-9.124 17.465h-23.676c-.41-.015-.508-.134-.583-.299v-11.553h24.259zm0 0" style="fill:#001c47;fill-opacity:1;fill-rule:nonzero;stroke:none;stroke-width:1.91318" transform="translate(-96.26 -63.04)"/></svg>