<svg xmlns="http://www.w3.org/2000/svg" viewBox="0 0 189.52 30.969"><path d="m224.024 174.539-.378-.239a6.731 6.731 0 0 0-5.454-1.7 10.269 10.269 0 0 0-4.768 1.642v-.055a19.183 19.183 0 0 1 .138-1.952 19.177 19.177 0 0 0 .143-1.986 4.651 4.651 0 0 0-.3-1.806.353.353 0 0 0-.342-.216 5.17 5.17 0 0 0-2.2.719l-.165.362a14.435 14.435 0 0 1-.326 2.938c.006-.009-.084.24-.084.24a35.822 35.822 0 0 0-.026 7.466c.028.215.44.536.758.652a4.8 4.8 0 0 0 2.071-.4c-.008 0 .236-.038.236-.038a.359.359 0 0 0 .306-.415s.016-.616.016-.616a6.138 6.138 0 0 1 4.47-4.383 3.093 3.093 0 0 1 2.969.956 4.064 4.064 0 0 1-.482 3.009 6.229 6.229 0 0 1-3.4 2.679 13 13 0 0 1-5.2.731l-1.911-1.293a27.759 27.759 0 0 0-5.458-3.245 6.6 6.6 0 0 1-1.241-.884l-.187-.155c-1.053-.843-3.054-2.179-4.664-3.249l-.864-.581v-.181c.048-.052 1.059-.657 1.059-.657a10.721 10.721 0 0 0 2.206-1.444c-.029.035.188-.111.188-.111l3.507-1.983c3.365-1.85 7.179-3.949 9.183-6.023l.1-.317.045-.283a1.941 1.941 0 0 0 .03-1.175.37.37 0 0 0-.273-.268c-1.564-.156-3.581.781-5.417 2.5a4.905 4.905 0 0 1-1.13.779l-.279.157c-2.026 1.151-6.586 3.982-8.973 5.509a79.368 79.368 0 0 1 1.216-9.265l-.067-.364-.246-.46-.187-.329-.053-.015a1.53 1.53 0 0 0-1.151-.072l-.479.179-.634.229a.353.353 0 0 0-.264.224 38.681 38.681 0 0 0-2.316 10.914 54.509 54.509 0 0 0-5.417-2.992l-.029-.017-.123-.027a3.8 3.8 0 0 1-1.259-.585c-.047-.027-.869-.562-.869-.562l-1.323-.848c.01.009-.349-.08-.349-.08a4.146 4.146 0 0 0-1.986 1.331.4.4 0 0 0-.058.215 1.369 1.369 0 0 0 .058.313l.061.268.061.163a19 19 0 0 0 3.806 2.58l1.821.964 2.785 1.522c0 .012.476.377.476.377l.328.188.059.037-5.067 3.386-2.667 1.764a14.835 14.835 0 0 1-1.535.738 2.2 2.2 0 0 0-1.195.987l-.072.153.072.1.2.154c-.008 0 .273.178.273.178l.295.2c.007 0 .277.044.277.044a7.074 7.074 0 0 0 2.459-.818c1.191-.527 4.429-2.479 5.811-3.313l.592-.354a1.323 1.323 0 0 0 .753-.368 7.165 7.165 0 0 1 1.247-.753c.011 0 .222-.122.42-.231v.157a56.109 56.109 0 0 0 .766 9.682v.04l.045.1a10.409 10.409 0 0 1 .718 2.221l.527 1.768c.012.021.148.165.148.165a3.486 3.486 0 0 0 1.831.484l.153-.017.1-.216a4.03 4.03 0 0 0 .07-.808c0-.324-.025-.68-.052-1.116l-.041-.636c-.195-2.955-.388-7.221-.388-10.059v-.224l2.7 1.7c3.737 2.425 9.383 6.088 12.793 7.056a.5.5 0 0 0 .494-.112c0-.007.526-.338.526-.338l.1-.041a.941.941 0 0 0 .351-.78c2.876-.144 6.887-1.252 9.033-3.95a5.629 5.629 0 0 0 1.2-3.422 2.9 2.9 0 0 0-.7-2.1" style="fill:#fcaf16" transform="translate(-181.251 -158.646)"/><path d="M298.716 181.577h-12.529v-4.419h12.529Zm2.625-6.71h-17.787v9.014h17.787Z" style="fill:#fff" transform="translate(-181.251 -158.646)"/><path d="M119.981 11.348V4.325h-17.553v2.266h14.904v4.774h-16.917v2.28h21.565v-2.297h-1.999zM53.347 4.301h3.354v9.404L67.99 4.301h4.752L60.809 13.79l12.922 11.521h-4.745L56.701 14.053v11.258h-3.354V4.301z" style="fill:#fff"/><path d="M257.32 162.992h10.327c4.911 0 7.481 1.632 7.481 5.2a4.8 4.8 0 0 1-4.128 4.755v.086c3.38.4 4.979 2.623 4.979 5.122 0 3.135-2.3 5.847-8 5.847H257.32Zm3.347 8.85h6.814c2.53 0 4.4-.961 4.4-3.2 0-1.952-.921-3.255-4.786-3.255h-6.428Zm0 9.776h6.6c4.1 0 5.19-1.6 5.19-3.637 0-2.416-1.671-3.752-5.366-3.752h-6.428Z" style="fill:#fff" transform="translate(-181.251 -158.646)"/><path d="M189.52 15.958v2.297h-9.302v7.13h-2.638v-7.13h-9.205v-2.28l21.145-.017z" style="fill:#fff"/><path d="M315.761 170.547c4.4 0 7.965-1.5 7.965-4.471 0-3-3.566-4.469-7.965-4.469s-7.967 1.474-7.967 4.469c0 2.974 3.568 4.471 7.967 4.471m-.007-6.707c2.865 0 5.2.7 5.2 2.24s-2.331 2.244-5.2 2.244-5.2-.692-5.2-2.244 2.325-2.24 5.2-2.24m10.778 9.972v-2.275h-21.551v2.275h4.933v2.476c-1.917.8-3.135 2.085-3.135 3.873 0 3.233 4.018 4.859 8.971 4.859s8.967-1.626 8.967-4.859c0-1.772-1.2-3.051-3.082-3.85v-2.5Zm-13.98 0H319v1.757a20.2 20.2 0 0 0-6.448-.008Zm9.394 6.355c0 1.788-2.779 2.585-6.2 2.585s-6.2-.8-6.2-2.585 2.772-2.583 6.2-2.583 6.2.809 6.2 2.583m39.785-14.767h6.95v-2.264H351.5v2.264h7.046c-1.333 4.383-8.134 5-7.574 4.955v2.178c2.955-.263 6.955-1.636 9.168-4.137 2.216 2.5 6.213 3.874 9.168 4.137v-2.178c.56.045-6.24-.572-7.573-4.955m-16.955 18.4h2.62v-20.836h-2.62Zm-7.514-17.015v-1.173h5.034v-2.264h-13.066v2.264h5.123v1.177c-1.093 7.048-5.8 8.168-5.8 8.168v2.178c2.394-.5 5.455-2.883 7.252-5.883 1.8 3 4.86 5.384 7.254 5.883v-2.178s-4.707-1.12-5.8-8.172" style="fill:#fff" transform="translate(-181.251 -158.646)"/></svg>