<svg xmlns="http://www.w3.org/2000/svg" xml:space="preserve" width="1000px" height="586px" x="0px" y="0px" viewBox="0 0 1000 586"><path fill="#EC0080" d="M490.821 241.546H303.07c-4.625 0-8.332-3.751-8.332-8.319 0 4.565 3.708 10.466 8.332 13.111l187.753 108.456c4.6 2.634 8.336 1.06 8.336-3.544V240.875c0-1.297-.32-2.671-.873-4.081a8.233 8.233 0 0 1-7.465 4.752"/><path fill="#85288F" d="m490.821 227.776-86.059-49.745-101.693 58.716c-4.625 2.646-8.332 1.05-8.332-3.512 0 4.562 3.708 8.306 8.332 8.306h187.752a8.233 8.233 0 0 0 7.465-4.736c-1.301-3.544-4.174-7.148-7.465-9.029"/><path fill="#FCB832" d="M499.159 4.838c0-4.626-3.742-6.198-8.304-3.514L303.07 109.683c-4.609 2.657-8.341 8.546-8.341 13.161 0-4.613 3.732-8.326 8.341-8.326h187.751a8.2 8.2 0 0 1 7.465 4.742c.563-1.406.873-2.813.873-4.075V4.838z"/><path fill="#F5841E" d="M490.821 114.516H303.07a8.313 8.313 0 0 0-8.332 8.322c0-4.594 3.708-6.172 8.332-3.517l101.693 58.717 86.09-49.744c3.259-1.895 6.132-5.472 7.435-9.04a8.252 8.252 0 0 0-7.467-4.738"/><path fill="#44207A" d="m303.067 236.741 101.691-58.709-101.691-58.718c-4.614-2.642-8.337-1.08-8.337 3.519v110.395c.001 4.57 3.724 6.157 8.337 3.513M0 355.813h49.035v92.375l86.427-92.375h64.128l-99.036 103.388 107.514 119.106h-68.514L49.035 472.71v105.597H0z"/><path fill="#44207A" d="M410.165 562.601c-28.927 15.063-60.655 21.379-93.361 21.379-69.454 0-120.07-45.611-120.07-116.926 0-71.357 50.615-116.899 120.07-116.899 35.204 0 66.336 7.854 88.647 28.573l-34.599 37.745c-13.171-13.867-29.205-21.092-54.048-21.092-41.793 0-69.145 30.193-69.145 71.676 0 41.49 27.352 71.656 69.145 71.656 21.381 0 37.091-5.987 46.202-11V491.59h-39.89v-45.27h87.048v116.281z"/><g fill="#44207A"><path d="M567.594 386.561h124.604v31.252h-91.16v47.829h86.417v31.34h-86.417v52.714h95.925v31.375H567.594zM768.434 417.813h-57.592v-31.252h148.721v31.252H801.91v163.258h-33.476zM974.521 428.294c-7.194-10.48-19.861-15.391-32.887-15.391-15.45 0-30.871 7.132-30.871 24.979 0 39.036 89.236 16.746 89.236 85.942 0 41.792-31.875 62.16-68.749 62.16-23.414 0-46.233-7.404-61.621-26.402l25.244-25.277c8.198 12.904 22.198 20.306 37.141 20.306 15.422 0 32.947-8.702 32.947-26.576 0-42.564-89.331-18.173-89.331-87.73 0-40.01 34.603-58.659 69.381-58.659 19.705 0 39.335 5.741 53.954 20.011l-24.444 26.637z"/></g></svg>