<svg xmlns="http://www.w3.org/2000/svg" width="246.94661pt" height="150pt" viewBox="0 0 246.94662 150"><defs><clipPath id="a"><path d="M-32798.546 33788.47h65535v-65535h-65535Z"/></clipPath><clipPath id="b"><path d="M-32798.546 33788.47h65535v-65535h-65535Z"/></clipPath></defs><path fill="#e40077" d="M123.68 61.658H75.752c-1.179 0-2.126-.96-2.126-2.12 0 1.16.947 2.668 2.126 3.345l47.928 27.681c1.18.677 2.133.271 2.133-.902V61.484c0-.328-.09-.683-.226-1.037a2.094 2.094 0 0 1-1.907 1.211" style="stroke-width:6.44362"/><path fill="#850e84" d="m123.68 58.143-21.966-12.7L75.752 60.43c-1.179.677-2.126.27-2.126-.895 0 1.166.947 2.126 2.126 2.126h47.928c.844 0 1.572-.496 1.907-1.211-.335-.91-1.063-1.83-1.907-2.307" style="stroke-width:6.44362"/><path fill="#fabf13" d="M125.808 1.235c0-1.185-.954-1.585-2.12-.902L75.754 27.996c-1.18.676-2.133 2.184-2.133 3.363 0-1.179.954-2.126 2.133-2.126h47.921c.85 0 1.572.496 1.908 1.211.148-.36.225-.715.225-1.044z" style="stroke-width:6.44362"/><path fill="#f08700" d="M123.68 29.231H75.752c-1.179 0-2.126.954-2.126 2.12 0-1.166.947-1.572 2.126-.889l25.962 14.982 21.972-12.694c.838-.484 1.566-1.399 1.901-2.307a2.105 2.105 0 0 0-1.907-1.212" style="stroke-width:6.44362"/><path fill="#3f1377" d="m75.753 60.431 25.955-14.987-25.955-14.988c-1.18-.67-2.133-.27-2.133.902v28.178c0 1.166.954 1.572 2.133.895M0 89.254h12.327v23.23l21.74-23.23h16.129l-24.911 26 27.037 29.95h-17.23L12.327 118.65v26.554H0Z" style="stroke-width:6.44362"/><path fill="#3f1377" d="M103.143 141.256c-7.275 3.789-15.252 5.374-23.474 5.374-17.468 0-30.195-11.47-30.195-29.402 0-17.946 12.727-29.396 30.195-29.396 8.847 0 16.676 1.972 22.289 7.185l-8.7 9.491c-3.311-3.486-7.338-5.303-13.589-5.303-10.51 0-17.391 7.59-17.391 18.023 0 10.438 6.882 18.023 17.391 18.023 5.374 0 9.324-1.508 11.618-2.771v-9.08H81.254v-11.385h21.89zM193.153 143.132h-56.149v-6.753h56.15zM237.64 91.538h8.39v29.067h-8.39zM213.201 143.234v-3.673H246.025v-15.973h-41.181v6.443h32.585v3.647h-32.585V150h42.103v-6.766zM232.689 112.658c-4.195 1.134-21.483.819-24.202.767v-4.098h20.168v-6.347h-20.168v-3.731h21.528v-6.418H199.375v27.038h8.996c13.557.373 24.84-.883 24.84-.883zM170.125 106.708h.006a1.022 1.022 0 0 1-.096-.154.07.07 0 0 1-.012-.033 3.598 3.598 0 0 1-.47-1.643l-.033-11.083-9.079.026.032 10.98v.052c0 .193-.038.857-.406 1.552-1.624 2.894-6.372 8.41-19.981 12.843l3.75 7.584s10.284-2.191 21.173-12.372c10.897 10.18 21.18 12.372 21.18 12.372l3.75-7.584c-13.15-4.285-18.035-9.582-19.813-12.54" style="stroke-width:6.44362"/></svg>