<svg xmlns="http://www.w3.org/2000/svg" xml:space="preserve" id="svg2330" x="0px" y="0px" style="enable-background:new 0 0 231.4 72.3" version="1.1" viewBox="0 0 231.4 72.3"><style>.st2{fill:#fff}</style><path id="path1840" d="M172.5 21.3h14.4v24.3h13l18 26.8h-17.4l-13.6-20.3v20.3h-14.4V21.3z" style="fill:#c7c7c7"/><path id="path1847" d="m231.4 0-8.8 47.5-4.3-8s-2.8-5.1-5.2-7.5l-18.6 21.4-10.9-9.5 18.6-21.4c-2.6-2-8.1-4.1-8.1-4.1l-8.6-3.1L231.4 0z" style="fill:#e4007f"/><path id="path1851" d="M31.1 17.1c0-1.9-.4-3.3-1.2-4.9h9c.1 0 .2.1.2.1v47.9c0 .1-.1.1-.2.1h-7.6c-.1 0-.2-.1-.2-.1V17.1z" class="st2"/><path id="path1855" d="M2.1 15.1V21h13.7c.9 0 .8.7.8 1 0 2.4-.3 4.7-.7 6.8H1.7v5.8H14C9.3 45.1 0 50.2 0 50.2l6.2 4c17-10.6 18.6-25 18.6-35.9v-3.1H2.1z" class="st2"/><path id="path1859" d="M86.7 33.3H44.2c-.1 0-.2.1-.2.1v5.4c0 .1.1.1.2.1h16.6v4.2H47.7c.8 1.7 1.2 3.1 1.2 5v11.1c0 .1.1.1.2.1h32.6c.1 0 .2-.1.2-.1V43.4c0-.1-.1-.1-.2-.1H70V39h16.7c.1 0 .2-.1.2-.1v-5.4c0-.1-.1-.2-.2-.2M73.9 53.9H56.7v-5.1h17.1v5.1z" class="st2"/><path id="path1863" d="M138.2 19v-5.5c0-.1.1-.1.1-.1h23.4c.1 0 .1.1.1.1 0 .1-.2 6.9-1.7 14v.1l-.1.3h5.9c.1 0 .1.1.1.1v5.5c0 .1-.1.1-.1.1h-14.6v8.9c0 .1-.1.1-.1.1h-7.7c-.1 0-.1-.1-.1-.1v-8.9h-7.7c-.1 0-.1-.1-.1-.1V28c0-.1.1-.1.1-.1h16.6l.1-.2c.2-.8 1-3.6 1.3-8.1v-.4h-15.3c-.2-.1-.2-.1-.2-.2" class="st2"/><path id="path1867" d="M143.9 59.3v-8.9c0-1.9-.3-3.3-1.1-5h8.9c.1 0 .2.1.2.2v8.2h24.3c.1 0 .2.1.2.1v5.4c0 .1-.1.2-.2.2h-32.1c-.1-.1-.2-.1-.2-.2" class="st2"/><path id="path1871" d="M176 12.3c.1 0 .2.1.2.1v34.9c0 .1-.1.1-.2.1h-7.4c-.1 0-.2-.1-.2-.1V42h-11.1c-.1 0-.2-.1-.2-.2v-5.4c0-.1.1-.1.2-.1h11.1V17.2c0-1.9-.4-3.3-1.2-4.9h8.8z" class="st2"/><path id="path1875" d="M80.9 21c0 5.8-7 10.5-15.6 10.5S49.7 26.8 49.7 21s7-10.5 15.6-10.5S80.9 15.2 80.9 21m-15.6-4.8c-3.7 0-6.6 2.2-6.6 4.8s3 4.8 6.6 4.8c3.7 0 6.6-2.2 6.6-4.8s-3-4.8-6.6-4.8" class="st2"/><path id="path1879" d="M94.1 19v-5.5c0-.1.1-.1.1-.1h35c.1 0 .1 0 .1.1V19c0 .1 0 .1-.1.1h-12.5l.7.7c4.8 4.4 13.7 6.7 14.8 6.9.1 0 .1.1.2.1l-.1.2s-3.9 4.1-4 4.4h-.2c-.4-.1-9.9-2.4-16.1-7l-.3-.2-.3.2c-6.1 4.6-15.7 7-16.1 7.1-.1 0-.1 0-.2-.1 0-.1-.1-.3-4.1-4.4v-.1s.1-.1.2-.1c1-.2 10-2.5 14.8-6.9l.7-.7H94.2c-.1-.1-.1-.1-.1-.2" class="st2"/><path id="path1883" d="M132.6 38.9c.1 0 .2-.1.2-.1v-5.4c0-.1-.1-.1-.2-.1H90.8c-.1 0-.2.1-.2.1v5.4c0 .1.1.1.2.1h41.8z" class="st2"/><path id="path1887" d="M127.4 50.7c0 5.8-7 10.5-15.7 10.5S96 56.5 96 50.7s7-10.5 15.7-10.5 15.7 4.7 15.7 10.5m-15.7-4.8c-3.7 0-6.7 2.1-6.7 4.8 0 2.6 3 4.8 6.7 4.8s6.7-2.1 6.7-4.8c0-2.6-3-4.8-6.7-4.8" class="st2"/></svg>