<svg xmlns="http://www.w3.org/2000/svg" xml:space="preserve" width="961.87048" height="300" viewBox="0 0 961.87049 299.99999"><path d="M128.913 282.51c-25.476-25.476-67.17-25.476-92.635 0l-47.074 47.066c-25.487 25.48-25.487 67.175 0 92.65l47.074 47.07c25.464 25.476 67.159 25.476 92.635 0l47.081-47.07c25.487-25.475 25.487-67.17 0-92.65z" style="fill:#ed1c24;fill-opacity:1;fill-rule:nonzero;stroke:none;stroke-width:3.7798" transform="matrix(1.33333 0 0 -1.33333 39.882 651.205)"/><path d="M54.668 306.762a6.94 6.94 0 0 0-6.94 6.667 6.916 6.916 0 0 0 1.822 5.005 6.972 6.972 0 0 0 4.838 2.245c3.833.177 7.087-2.828 7.269-6.672.136-3.836-2.835-7.083-6.687-7.238-.087-.008-.2-.008-.302-.008M79.997 435.243c-3.818 0-6.864-1.194-9.355-3.651-5.337-5.307-8.134-16.257-7.885-30.832.306-17.969 4.578-53.227 18.718-71.378 2.287-2.94 4.751-5.287 7.321-6.98 2.487-1.649 5.28-3.251 9.643-3.251 1.179 0 2.449.117 3.78.351 8.1 1.95 18.248 10.973 25.8 22.977 1.176 1.83 3.13 2.922 5.292 2.922a6.144 6.144 0 0 0 3.315-.96 6.218 6.218 0 0 0 2.763-3.897c.378-1.629.087-3.3-.79-4.71-9.56-15.187-22.161-25.85-33.731-28.526a2.511 2.511 0 0 0-.287-.06c-2.128-.39-4.207-.59-6.195-.59-7.462 0-12.727 2.843-16.476 5.315-3.7 2.46-7.163 5.73-10.293 9.733-19.893 25.555-21.254 73.464-21.325 78.842-.239 12.75 1.598 30.02 11.558 39.904 4.857 4.823 10.965 7.265 18.094 7.265h1.168c7.159 0 13.275-2.442 18.117-7.265 9.967-9.884 11.789-27.154 11.573-39.904-.196-13.286-2.657-39.01-16.415-62.079a6.327 6.327 0 0 0-5.383-3.043 6.214 6.214 0 0 0-3.19.885c-2.922 1.761-3.927 5.601-2.132 8.561 9.605 16.144 14.261 33.901 14.647 55.888.234 14.579-2.563 25.529-7.877 30.832-2.499 2.457-5.553 3.651-9.355 3.651z" style="fill:#fff;fill-opacity:1;fill-rule:nonzero;stroke:none;stroke-width:3.7798" transform="matrix(1.33333 0 0 -1.33333 39.882 651.205)"/><path d="M276.258 330.407v7.25h-25.15v-43.895h8.243v18.423h14.265v7.25h-14.265v10.972zM281.44 293.76h8.164v43.895h-8.164zM329.388 337.657v-25.714c0-.915.004-1.814.027-2.699-.2.246-.409.484-.62.737-.783.904-25.019 27.676-25.019 27.676h-5.696v-43.895h8.248v27.033c0 1.047-.02 2.136-.05 3.255 1.04-1.199 2.11-2.454 3.247-3.765 1.682-1.958 24.902-27.445 24.902-27.445h3.197v44.817z" style="fill:#054975;fill-opacity:1;fill-rule:nonzero;stroke:none;stroke-width:3.7798" transform="matrix(1.33333 0 0 -1.33333 39.882 651.205)"/><path d="M372.896 382.78c-14.794 0-26.046 15.013-26.046 33.5 0 18.506 11.252 33.516 26.046 33.516 14.855 0 26.111-15.01 26.111-33.516 0-18.487-11.256-33.5-26.11-33.5m0 76.186c-30.912 0-49.403-19.107-49.403-42.686 0-23.582 18.49-42.662 49.402-42.662 30.968 0 49.478 19.08 49.478 42.662 0 23.579-18.51 42.686-49.478 42.686M426.581 446.37h32.555v-69.212h24.527v69.212h27.468v9.45h-84.55zM520.094 446.37h27.45v-69.212h24.523v69.212h32.547v9.45h-84.52zM274.657 391.268v64.551h-23.549v-69.298c0-5.175 4.207-9.36 9.367-9.36h60.182v9.412h-41.314a4.695 4.695 0 0 0-4.686 4.695M617.956 446.472v-59.959c0-5.167 4.206-9.363 9.381-9.363h64.154v9.299H646.21a4.672 4.672 0 0 0-4.676 4.69v23.19h49.228v9.192h-49.228v18.34a4.673 4.673 0 0 0 4.676 4.671h45.281v9.287h-64.154c-5.175 0-9.381-4.176-9.381-9.347" style="fill:#ed1c24;fill-opacity:1;fill-rule:nonzero;stroke:none;stroke-width:3.7798" transform="matrix(1.33333 0 0 -1.33333 39.882 651.205)"/><path d="M412 300.287c-7.744 0-16.063 4.827-16.063 15.422 0 10.644 8.319 15.497 16.064 15.497 4.15 0 8.107-1.376 10.084-2.646l1.07-.692 1.516 7.443-.564.321c-2.324 1.308-6.452 2.884-12.817 2.884-11.449 0-23.6-7.994-23.6-22.807 0-14.768 12.151-22.74 23.6-22.74 5.265 0 8.478.609 11.408 2.151l.378.2 1.821 8.531-1.742-1.047c-2.71-1.625-6.679-2.517-11.154-2.517M459.846 319.433h-19.92v18.223h-8.19V293.76h8.19v18.426h19.92v-18.426h8.15v43.895h-8.15zM484.651 312.187h13.634v7.246H484.65v10.977h16.272v7.246h-24.459V293.76h26.776v7.257h-18.589zM354.27 312.187h13.634v7.246H354.27v10.977h16.28v7.246h-24.46V293.76h26.77v7.257h-18.59zM549.58 337.657s-14.53-28.473-15.77-31.293c-1.096 2.381-16.004 31.293-16.004 31.293h-5.272l-3.818-43.895h7.461s2.072 24.36 2.2 26.05c1.127-2.4 13.456-26.375 13.456-26.375h3.455s12.092 23.733 13.392 26.451c.125-2.09 2.279-26.126 2.279-26.126h7.84l-3.935 43.895zM566.346 293.76h8.157v43.895h-8.157zM605.523 300.287c-7.737 0-16.071 4.827-16.071 15.422 0 10.644 8.334 15.497 16.071 15.497 4.128 0 8.12-1.376 10.077-2.646l1.085-.692 1.52 7.443-.567.321c-2.34 1.308-6.46 2.884-12.818 2.884-11.449 0-23.6-7.994-23.6-22.807 0-14.768 12.151-22.74 23.6-22.74 5.258 0 8.463.609 11.408 2.151l.37.2 1.822 8.531-1.735-1.047c-2.718-1.625-6.649-2.517-11.162-2.517M645.1 311.508h-9.385s4.389 10.875 4.699 11.804c.355-1.058 4.687-11.804 4.687-11.804m-6.335 26.738-18.669-44.484h8.187l4.54 10.897h15.164l4.574-10.897h8.365l-18.684 44.484zM672.97 301.018v36.657h-8.18V293.76h26.7v7.257z" style="fill:#054975;fill-opacity:1;fill-rule:nonzero;stroke:none;stroke-width:3.7798" transform="matrix(1.33333 0 0 -1.33333 39.882 651.205)"/></svg>