<svg xmlns="http://www.w3.org/2000/svg" width="1000" height="148.754" viewBox="0 0 264.58333 39.35783"><g fill="#756660"><path d="M90.68 6.368a3.984 3.984 0 0 0-2.684-1.249h-5.828a.393.393 0 0 0-.293.624l10.477 12.482 4.14-4.926zM90.664 32.99l7.039-8.389 7.039 8.388c.699.748 1.66 1.196 2.683 1.25h5.82a.394.394 0 0 0 .294-.625l-11.696-13.94 11.688-13.93a.393.393 0 0 0-.293-.624h-5.82a3.955 3.955 0 0 0-2.683 1.248l-22.86 27.246a.385.385 0 0 0 .286.624h5.82a3.956 3.956 0 0 0 2.683-1.249zM64.937 6.098a.979.979 0 0 0-.948-.979h-5.936a.979.979 0 0 0-1.002.956V30.306a3.932 3.932 0 0 0 3.931 3.932h16.29a3.322 3.322 0 0 0 2.683-1.249l3.7-4.417a.393.393 0 0 0-.285-.625H65.924a.978.978 0 0 1-.987-.964zM264.144 32.025h-16.368v-1.857h14.417c.902 0 1.342-.455 1.342-1.388v-5.767c0-.94-.44-1.395-1.342-1.395h-18.387a.694.694 0 0 0-.77.77v1.882a.694.694 0 0 0 .77.77h14.648v1.82h-14.386c-.902 0-1.341.401-1.341 1.334v4.017a3.307 3.307 0 0 0 3.307 3.253h18.11a.432.432 0 0 0 .44-.424v-2.576a.432.432 0 0 0-.425-.439h-.015zM258.878 12.02v7.593a.694.694 0 0 0 .771.771h3.246a.694.694 0 0 0 .771-.771V4.795a.694.694 0 0 0-.771-.77h-3.261a.694.694 0 0 0-.771.77v3.608M135.21 10.539c-.324-3.693-3.554-5.397-8.203-5.397h-.771c-4.626 0-7.88 1.712-8.203 5.397a27.923 27.923 0 0 0 0 4.68c.324 3.693 3.554 5.504 8.203 5.504h.77c4.626 0 7.88-1.811 8.204-5.504a27.923 27.923 0 0 0 0-4.68zm-4.919 4.11c-.177 1.795-1.419 2.798-3.7 2.898-2.313-.1-3.531-1.103-3.709-2.899a22.697 22.697 0 0 1 0-3.554c.178-1.796 1.419-2.714 3.708-2.799 2.313.085 3.524 1.003 3.701 2.799a22.844 22.844 0 0 1 0 3.554zM145.325 31.61h-16.807v-6.415a.702.702 0 0 0-.771-.771h-3.585a.71.71 0 0 0-.77.77v7.14a3.4 3.4 0 0 0 3.198 3.13h18.735a.44.44 0 0 0 .447-.432v-2.96a.447.447 0 0 0-.432-.462h-.016zM144.253 25.264a.71.71 0 0 1-.771.771h-3.315a.71.71 0 0 1-.771-.771V4.811a.71.71 0 0 1 .771-.771h3.315a.71.71 0 0 1 .77.77zM166.356 23.506h-12.783V9.722h10.37a.686.686 0 0 0 .77-.771V6.884a.686.686 0 0 0-.77-.77h-13.785c-.887 0-1.318.454-1.318 1.38V24.1a2.983 2.983 0 0 0 2.983 2.983h14.532a.694.694 0 0 0 .771-.77v-2.059a.694.694 0 0 0-.77-.748z"/><path d="M151.639 18.303h10.369a.686.686 0 0 0 .77-.772v-2.066a.686.686 0 0 0-.77-.77h-10.902M172.192 18.303h-6.738a.686.686 0 0 1-.77-.772v-2.066a.686.686 0 0 1 .77-.77h7.278"/><path d="M169.463 15.042V4.772a.678.678 0 0 1 .725-.771h3.277a.702.702 0 0 1 .732.771v29.921c0 .532-.27.81-.733.81h-3.246a.678.678 0 0 1-.724-.771V18.696M232.828 19.999h-7.949a.686.686 0 0 1-.77-.772v-2.066a.686.686 0 0 1 .77-.77h8.481M232.828 13.762h-7.949a.686.686 0 0 1-.77-.771v-2.059a.694.694 0 0 1 .77-.77h8.48"/><path d="M230.068 15.042V4.772a.686.686 0 0 1 .732-.771h3.246a.702.702 0 0 1 .725.771v29.92c0 .533-.27.81-.725.81H230.8a.678.678 0 0 1-.732-.77V18.695M192.067 23.36h-8.58V6.94a.771.771 0 0 0-.833-.772h-3.176c-.47 0-.725.286-.725.771v17.015a2.984 2.984 0 0 0 2.984 2.984h10.33a.694.694 0 0 0 .771-.771V24.1a.694.694 0 0 0-.77-.74zM204.256 4.009h-3.037a.679.679 0 0 0-.733.771v29.913a.678.678 0 0 0 .733.77h3.03a.67.67 0 0 0 .716-.77V4.773a.67.67 0 0 0-.71-.764zM197.827 4.48h-3.03a.679.679 0 0 0-.725.77v29.212a.678.678 0 0 0 .725.77h3.03a.678.678 0 0 0 .724-.77V5.242a.679.679 0 0 0-.725-.762z"/><path d="M203.054 18.303h-6.738a.686.686 0 0 1-.771-.772v-2.066a.686.686 0 0 1 .77-.77h7.286M225.82 24.077c-5.79-3.238-6.53-8.419-6.53-12.574V7.077a.67.67 0 0 0-.725-.77h-3.307a.67.67 0 0 0-.733.77v4.426c0 4.155-.771 9.336-6.522 12.574a.771.771 0 0 0-.324 1.117l.902 1.913c.339.77 1.048.362 1.303.246 3.083-1.465 5.705-3.693 7.023-6.168a14.338 14.338 0 0 0 6.792 5.983c.147.07 1.203.563 1.635-.3l.77-1.697a.771.771 0 0 0-.285-1.094zM255.286 14.864h-11.803V6.168a.771.771 0 0 0-.833-.77h-3.169a.694.694 0 0 0-.77.77v9.313a2.984 2.984 0 0 0 2.983 2.984h13.553a.686.686 0 0 0 .771-.771v-2.09a.686.686 0 0 0-.732-.74z"/><path d="M259.079 11.989h-6.977a.686.686 0 0 1-.771-.772V9.151a.694.694 0 0 1 .77-.77h7.556"/></g><path fill="#fff" d="m41.746 27.198-9.813-7.4c-.812-.589-2.37-.671-3.247.177l-9.803 9.705c-.429.41-.761.596-.755-.106L18.39 0H7.4l-.043 25.859c-.002 1.025.463 2.153 1.19 2.683l7.5 5.586c.965.703 2.964.728 3.785-.06l7.09-6.835c.33-.31.494-.309.86-.045l9.38 6.984c1.013.737 3.177.776 3.958.029l4.143-4.724v-4.104l-2.44 1.61c-.325.31-.705.481-1.077.215"/><g fill="#ab2c29"><path d="M41.328 0H17.732v29.88c0 .702.722.868 1.149.456L29.079 20.5c.875-.848 1.654-.723 2.46-.133l10.12 7.356c.369.266.926.227 1.252-.084l2.351-2.266V3.936A3.931 3.931 0 0 0 41.328 0"/><path d="m37.64 33.688-9.599-6.979c-.363-.268-.922-.224-1.245.084l-7.142 6.88c-.813.787-2.292.718-3.258.016l-7.194-5.234c-.73-.53-1.32-1.568-1.32-2.596V0H3.938A3.936 3.936 0 0 0 0 3.934v31.487a3.936 3.936 0 0 0 3.94 3.937h37.388a3.931 3.931 0 0 0 3.935-3.937v-5.944l-4.361 4.196c-.782.75-2.246.755-3.262.015"/></g></svg>