<svg xmlns="http://www.w3.org/2000/svg" xml:space="preserve" width="113.385" height="39.07275" viewBox="0 0 113.385 39.072749"><defs><clipPath id="a" clipPathUnits="userSpaceOnUse"><path d="M0 0h623.622v807.874H0V0Z"/></clipPath><clipPath id="b" clipPathUnits="userSpaceOnUse"><path d="M0 0h623.622v807.874H0V0Z"/></clipPath></defs><g clip-path="url(#a)" transform="matrix(1.25 0 0 -1.25 -612.993 960.236)"><path d="M0 0h-4.814v-.125c0-.548-.179-1.076-.401-1.654 0 0-4.282-10.928-4.444-11.35l-5.035 11.817-.082.181c-.147.327-.294.66-.294 1.006v.1l-.097.025h-5.226v-.241l.062-.03c.993-.362 1.138-1.684 1.138-2.441l-.002-11.433c0-1.324-.143-2.806-1.214-3.747l-.031-.034v-.217h4.636v.239l-.057.029c-1.015.451-1.099 1.598-1.099 2.692v.334l.001.322.008 11.257c.338-.811 4.997-11.87 4.997-11.87.679-1.571 1.083-2.313 2.433-3.337l.099-.077S-3.796-4.169-3.45-3.276l-.004-12.643c0-.844-.129-1.664-1.049-1.956l-.067-.019v-.249H.643v.23l-.042.029C-.332-17.233-.75-16.4-.75-15.182v13.398c0 .3.06 1.304.78 1.513l.068.025V0H0Z" style="fill:#fff;fill-opacity:1;fill-rule:nonzero;stroke:none" transform="translate(526.565 756.226)"/><path d="M0 0c0 5.007 4.059 9.066 9.072 9.066a9.02 9.02 0 0 0 6.56-2.822 10.143 10.143 0 0 1-8.503 4.593A10.164 10.164 0 0 1-3.04.668c0-5.616 4.55-10.171 10.169-10.171 1.138 0 2.233.198 3.254.541a8.883 8.883 0 0 0-1.311-.106A9.068 9.068 0 0 0 0 0" style="fill:#e92b25;fill-opacity:1;fill-rule:nonzero;stroke:none" transform="translate(530.335 746.434)"/><path d="M0 0c-3.134.29-6.001-1.3-7.52-3.825a6.9 6.9 0 0 0 5.859 2.369 6.909 6.909 0 0 0 6.257-7.51 6.915 6.915 0 0 0-7.518-6.258 6.767 6.767 0 0 0-1.514.317 7.997 7.997 0 0 1 2.993-.892 7.94 7.94 0 0 1 8.622 7.183C7.582-4.257 4.365-.396 0 0" style="fill:#e92b25;fill-opacity:1;fill-rule:nonzero;stroke:none" transform="translate(540.03 754.39)"/><path d="M0 0c1.713.814 2.557 1.97 2.557 3.528 0 2.532-2.168 4.049-5.795 4.049h-6.561v-.243l.06-.028c1.186-.437 1.159-2.059 1.142-3.246l-.004-.401v-10.28l.004-.374c.016-1.209.033-2.858-1.143-3.304l-.059-.023v-.245H-4.749c1.924-.008 3.91-.011 5.696.856 2.025.967 3.325 2.873 3.325 4.86C4.272-2.48 2.641-.648 0 0m-5.628 5.511 1.744.186c.924.092 1.846-.195 2.476-.759.521-.472.798-1.116.798-1.853C-.61.479-4.121.348-4.824.348h-.804v5.163zM.079-7.471c-.805-.733-2.053-1.074-3.415-.94 0 0-1.887.174-2.292.207v6.564c.168.006 1.819.102 1.819.102 1.546.086 2.995-.357 3.876-1.193.658-.619.991-1.417.991-2.367 0-.985-.33-1.789-.979-2.373" style="fill:#fff;fill-opacity:1;fill-rule:nonzero;stroke:none" transform="translate(557.07 748.65)"/><path d="M0 0h-5.282v-.241l.064-.03c1.181-.437 1.159-2.07 1.142-3.261l-.003-.413V-14.23l.003-.361c.012-1.207.034-2.862-1.142-3.284l-.064-.023v-.245H.096v.245l-.065.023c-1.174.447-1.155 2.085-1.141 3.284l.003.361v10.285l-.003.364C-1.124-2.371-1.143-.715.031-.266l.065.025V0H0Z" style="fill:#fff;fill-opacity:1;fill-rule:nonzero;stroke:none" transform="translate(567.217 756.226)"/><path d="M0 0c0-3.171 2.807-4.425 5.288-5.538 2.105-.939 4.097-1.834 4.097-3.736 0-1.786-2.21-2.741-3.804-2.741-2.082 0-4.289.84-5.914 2.242l-.222.193.867-3.746.051-.017c1.486-.548 3.136-.826 4.915-.826 4.086 0 7.407 2.576 7.407 5.742 0 2.776-2.804 4.057-5.276 5.185-2.111.964-4.108 1.878-4.108 3.543 0 1.762 1.843 2.387 3.425 2.387 1.554 0 3.212-.66 4.215-1.687L11.1.828V4.22l-.063.02a13.72 13.72 0 0 1-4.092.607C3.738 4.847 0 3.58 0 0" style="fill:#fff;fill-opacity:1;fill-rule:nonzero;stroke:none" transform="translate(568.417 751.817)"/></g><path d="M0 0h-3.722v3.114H-5.47v-7.975h1.748v3.304H0v-3.304h1.747v7.975H0V0Z" style="fill:#fff;fill-opacity:1;fill-rule:nonzero;stroke:none" transform="matrix(1.25 0 0 -1.25 6.838 3.894)"/><g clip-path="url(#b)" transform="matrix(1.25 0 0 -1.25 -612.993 960.236)"><path d="M0 0c-.366-.375-.381-.922-.391-1.243V-7.52h1.745v2.545h3.709V-7.52h1.753V.455H1.368C.851.448.363.376 0 0m1.8-1.103h3.263v-2.315H1.354v1.859c.008.09-.01.257.067.356.083.104.213.094.379.1" style="fill:#fff;fill-opacity:1;fill-rule:nonzero;stroke:none" transform="translate(533.826 767.733)"/><path d="M0 0h-5.457v-7.975h1.747v6.416h3.279c.163-.005.296.004.376-.099.08-.099.065-.264.068-.356v-5.961H1.76v6.279c-.009.319-.022.868-.389 1.241C1.004-.079.52-.005 0 0" style="fill:#fff;fill-opacity:1;fill-rule:nonzero;stroke:none" transform="translate(521.46 768.188)"/><path d="M0 0c-.004-.093.011-.255-.068-.352C-.15-.459-.284-.45-.445-.453h-3.277v6.414h-1.749v-7.976h5.459c.519.005 1.004.083 1.369.459.365.373.38.92.39 1.24v6.277H0V0Z" style="fill:#fff;fill-opacity:1;fill-rule:nonzero;stroke:none" transform="translate(512.708 762.227)"/><path d="M0 0c-.008.32-.022.87-.388 1.242-.364.378-.849.45-1.367.458H-7.214v-7.977h5.459c.518.005 1.003.084 1.367.458.366.374.38.922.388 1.24V0Zm-1.739-4.261c-.009-.094.009-.255-.068-.353-.083-.107-.216-.099-.38-.102h-3.28V.141h3.28c.164-.006.297.004.38-.1.077-.098.059-.265.068-.356v-3.946z" style="fill:#fff;fill-opacity:1;fill-rule:nonzero;stroke:none" transform="translate(531.984 766.489)"/></g><path d="m0 0-2.118 3.489h-2.076L-.935-1.54v-2.946H.934v2.946l3.263 5.029H2.12L0 0Z" style="fill:#fff;fill-opacity:1;fill-rule:nonzero;stroke:none" transform="matrix(1.25 0 0 -1.25 15.038 4.363)"/><path d="M542.393 760.213h1.864v7.975h-1.864v-7.975z" style="fill:#fff;fill-opacity:1;fill-rule:nonzero;stroke:none" transform="matrix(1.25 0 0 -1.25 -612.993 960.236)"/></svg>