<svg xmlns="http://www.w3.org/2000/svg" xml:space="preserve" width="1021.4048" height="300" viewBox="0 0 1021.405 299.99999"><path d="M0 0h-16.896v11.993h-5.942V-4.488H0Z" style="fill:#00588a;fill-opacity:1;fill-rule:nonzero;stroke:none" transform="matrix(3.23108 0 0 -3.23108 991.138 216.454)"/><path d="M0 0v4.944h6.018V-13.76H0v9.317h-8.906V0Z" style="fill:#00588a;fill-opacity:1;fill-rule:nonzero;stroke:none" transform="matrix(3.23108 0 0 -3.23108 999.349 190.648)"/><path d="M0 0v-6.815h-7.961v-4.427H0v-5.444h-7.961v-4.426H0v-17.676h6.018V0Z" style="fill:#00588a;fill-opacity:1;fill-rule:nonzero;stroke:none" transform="matrix(3.23108 0 0 -3.23108 873.456 174.673)"/><path d="M0 0h22.086v-2.488H.246v-10.815h28.721v4.257H6.213v2.405h21.945V4.177H0Z" style="fill:#00588a;fill-opacity:1;fill-rule:nonzero;stroke:none" transform="matrix(3.23108 0 0 -3.23108 927.81 256.002)"/><path d="m0 0 .008 25.187h-6.055V-4.842H9.4V0Z" style="fill:#00588a;fill-opacity:1;fill-rule:nonzero;stroke:none" transform="matrix(3.23108 0 0 -3.23108 685.05 259.007)"/><path d="M0 0h-5.967v-13.556h28.721v4.594H0Z" style="fill:#00588a;fill-opacity:1;fill-rule:nonzero;stroke:none" transform="matrix(3.23108 0 0 -3.23108 436.478 255.185)"/><path d="M0 0c0 3.766 2.313 6.601 5.375 6.601 3.061 0 5.195-2.712 5.195-6.601 0-3.942-2.181-6.696-5.291-6.696C2.275-6.696 0-3.814 0 0m16.217.046c0 6.206-4.752 11.058-10.84 11.058-5.981 0-11.035-5.061-11.035-11.058 0-6.091 4.951-11.053 11.035-11.053 6.088 0 10.84 4.857 10.84 11.053" style="fill:#00588a;fill-opacity:1;fill-rule:nonzero;stroke:none" transform="matrix(3.23108 0 0 -3.23108 417.634 210.423)"/><path d="M296.201 457.437h6.012v28.732h-6.012z" style="fill:#00588a;fill-opacity:1;fill-rule:nonzero;stroke:none" transform="matrix(3.23108 0 0 -3.23108 -469.088 1745.522)"/><path d="M0 0c3.148 0 5.809-1.558 7.428-4.012 0 0 1.283-1.916 2.177-2.417.899-.511 2.204-.783 3.083-.596.861.195 1.396.357.976 1.826C11.955.743 6.555 4.877 0 4.877c-7.957 0-14.191-6.136-14.191-14.135 0-8.013 6.234-14.149 14.191-14.149 6.361 0 11.334 3.625 13.434 9.468.632 1.692.109 1.933.109 1.933s-.522.722-2.65.234c-2.139-.501-3.081-2.175-3.081-2.175C6.248-16.656 3.344-18.509 0-18.509c-5.051 0-9.086 4.244-9.086 9.251C-9.086-4.2-5.051 0 0 0" style="fill:#00588a;fill-opacity:1;fill-rule:nonzero;stroke:none" transform="matrix(3.23108 0 0 -3.23108 347.769 15.758)"/><path d="M0 0c0 5.058 4.014 9.258 9.051 9.258 5.031 0 9.047-4.2 9.047-9.258 0-5.007-4.016-9.251-9.047-9.251C4.014-9.251 0-5.007 0 0m23.191 0c0 7.999-6.228 14.135-14.14 14.135C1.131 14.135-5.09 7.999-5.09 0c0-8.014 6.221-14.149 14.141-14.149 7.912 0 14.14 6.135 14.14 14.149" style="fill:#00588a;fill-opacity:1;fill-rule:nonzero;stroke:none" transform="matrix(3.23108 0 0 -3.23108 125.538 45.671)"/><path d="M0 0c5.027 0 9.041-4.2 9.041-9.258 0-5.007-4.014-9.251-9.041-9.251-5.039 0-9.053 4.244-9.053 9.251C-9.053-4.2-5.039 0 0 0m0-23.407c7.914 0 14.139 6.136 14.139 14.149C14.139-1.259 7.914 4.877 0 4.877c-7.922 0-14.148-6.136-14.148-14.135 0-8.013 6.226-14.149 14.148-14.149" style="fill:#00588a;fill-opacity:1;fill-rule:nonzero;stroke:none" transform="matrix(3.23108 0 0 -3.23108 447.213 15.758)"/><path d="m0 0 12.133-.144c1.621-.078 2.043-.87 1.471-2.297-1.034-2.579-4.643-4.637-7.79-4.598-3.849.045-5.789 1.993-7.257 3.531-1.491 1.561-4.209 1.587-5.084 1.248-.873-.318-.463-1.661-.104-2.37 2.324-4.524 7.393-7.023 12.193-7.09 5.112-.058 9.686 2.41 12.358 6.732 2.685 4.337 1.525 9.586-4.582 9.663l-13.813.169c-2.019.027-2.222 1.294-1.63 2.501 1.298 2.661 4.466 4.583 8.099 4.537 3.647-.038 5.617-2.182 6.826-3.369 1.284-1.254 3.973-1.646 5.16-1.051.596.292.565 1.108.016 2.147-2.326 4.421-7.215 6.883-12.226 6.942-4.27.046-9.122-1.93-12.04-6.455C-8.688 6.338-8.549.097 0 0" style="fill:#00588a;fill-opacity:1;fill-rule:nonzero;stroke:none" transform="matrix(3.23108 0 0 -3.23108 232.44 53.52)"/><path d="M0 0c5.006 0 9.088-4.127 9.088-9.229 0-5.101-4.082-9.235-9.088-9.235-5.016 0-9.076 4.134-9.076 9.235C-9.076-4.127-5.016 0 0 0m-9.975-34.329c.899.092.946 1.203.946 1.203v12.863c2.439-1.968 5.564-3.144 9.021-3.144 7.926 0 14.149 6.136 14.149 14.149 0 7.999-6.223 14.135-14.149 14.135-7.931 0-14.131-6.136-14.131-14.135v-18.733s-.248-2.482.938-4.22c.828-1.207 1.978-2.065 3.226-2.118" style="fill:#00588a;fill-opacity:1;fill-rule:nonzero;stroke:none" transform="matrix(3.23108 0 0 -3.23108 54.246 15.758)"/><path d="M159.043 480.461h9.09v-14.9h-9.09zm7.795-19.623h12.807v4.723h-5.555v14.9h5.158v4.761H147.83v-4.761h5.193v-14.9h-5.595v-4.723h13.355v-8.08H145.18v-4.76h36.812v4.76h-15.154z" style="fill:#00588a;fill-opacity:1;fill-rule:nonzero;stroke:none" transform="matrix(3.23108 0 0 -3.23108 -469.088 1745.522)"/><path d="M0 0h-6.006v-10.807h-12.055v-4.802h36.815v4.802H0Z" style="fill:#00588a;fill-opacity:1;fill-rule:nonzero;stroke:none" transform="matrix(3.23108 0 0 -3.23108 323.334 247.574)"/><path d="M0 0v26.129h-29.523v-4.76h23.564v-7.34h-23.564V9.366h23.564V0Z" style="fill:#00588a;fill-opacity:1;fill-rule:nonzero;stroke:none" transform="matrix(3.23108 0 0 -3.23108 370.525 262.16)"/><path d="M186.182 447.998H223v4.76h-36.818z" style="fill:#00588a;fill-opacity:1;fill-rule:nonzero;stroke:none" transform="matrix(3.23108 0 0 -3.23108 -469.088 1745.522)"/><path d="M0 0c-.59 1.24-1.17 3.109-1.17 4.824v5.044h-6.434V4.824c0-1.715-.58-3.584-1.171-4.824-1.1-2.299-3.016-5.114-7.819-7.571-2.953-1.513-6.195-2.592-6.195-2.592l3.605-3.982s5.389 1.954 8.596 4.086c2.715 1.825 5.399 4.615 6.205 5.883.795-1.268 3.69-4.24 6.197-5.883 3.231-2.097 8.594-4.086 8.594-4.086l3.61 3.982s-3.237 1.079-6.196 2.592C3.018-5.114 1.107-2.299 0 0" style="fill:#00588a;fill-opacity:1;fill-rule:nonzero;stroke:none" transform="matrix(3.23108 0 0 -3.23108 206.636 208.339)"/><path d="M0 0c-1.799 3.619-2.645 7.934-2.656 12.81v5.596h-5.895V12.81C-8.564 7.934-9.404 3.619-11.199 0c-2.477-4.973-5.453-6.671-7.496-7.628l3.308-4.373c2.028 1.007 4.225 3.089 5.387 4.52 1.359 1.414 3.246 3.543 4.396 7.293 1.153-3.75 3.034-5.879 4.401-7.293 1.166-1.431 3.355-3.513 5.383-4.52l3.31 4.373C5.449-6.671 2.471-4.973 0 0" style="fill:#00588a;fill-opacity:1;fill-rule:nonzero;stroke:none" transform="matrix(3.23108 0 0 -3.23108 839.366 238.005)"/><path d="M0 0v-12.498h-5.734v-4.593H0v-21.697h6.012V0Z" style="fill:#00588a;fill-opacity:1;fill-rule:nonzero;stroke:none" transform="matrix(3.23108 0 0 -3.23108 617.747 174.673)"/><path d="M0 0v-12.498h-3.129V0h-5.312v-38.788h5.312v21.697H0v-21.697h5.268V0Z" style="fill:#00588a;fill-opacity:1;fill-rule:nonzero;stroke:none" transform="matrix(3.23108 0 0 -3.23108 749.93 174.673)"/><path d="m0 0 .002 8.017h12.031v4.598H.004l.002 7.856H13.85v4.78H-5.984V-4.781h21.478V0Z" style="fill:#00588a;fill-opacity:1;fill-rule:nonzero;stroke:none" transform="matrix(3.23108 0 0 -3.23108 555.063 259.295)"/></svg>