<svg xmlns="http://www.w3.org/2000/svg" xml:space="preserve" width="3617.3184" height="500" viewBox="0 0 3617.3184 500"><path d="M0 0h-5.088L-8.51 11.236h-.056L-8.38 0h-3.551v14.044h5.309l3.166-10.796h.069l-.183 10.796H0Zm-15.77 3.89c.001-.262-.024-.796-.039-.934-.215-2.334-1.893-3.522-4.961-3.522-3.07 0-4.75 1.188-4.964 3.522a23.3 23.3 0 0 0-.033.934v10.158h3.661V3.57c0-.232.004-.41.034-.53.046-.228.276-.992 1.302-.992 1.038 0 1.264.764 1.32.992.019.12.026.302.026.53v10.478h3.654zm-13.258-1.286C-29.424-.142-32.112-.62-34.013-.62c-3.159 0-5.117 1.348-5.117 4.094l.012 1.124h3.822V3.2c0-.761.538-1.222 1.361-1.222.735 0 1.166.3 1.323.906.061.276.095.69-.029 1.006-.708 1.762-5.679 2.622-6.283 5.486-.137.652-.142 1.2-.032 1.9.42 2.59 2.912 3.134 4.914 3.134 1.798 0 3.096-.388 3.882-1.176.578-.582.876-1.384.876-2.38v-1.03h-3.578v.908c0 .77-.48 1.218-1.25 1.218-.686 0-1.102-.302-1.237-.906a1.758 1.758 0 0 1 .023-.71c.384-1.57 5.698-2.534 6.286-5.42.065-.372.172-1.164.012-2.31M-46.09-.142l-.091 12.318h-.061l-2.29-12.318h-3.658l-2.281 12.318h-.065l-.086-12.318h-3.626l.317 14.186h5.834L-50.402 3.5h.086l1.698 10.544h5.826l.304-14.186zm-18.748 0-1.845 12.56h-.067l-1.894-12.56h-3.9l2.615 14.186h6.367l2.608-14.186zm95.566 18.486c-1.82 10.43-33.168 13.69-70.026 7.274-15.474-2.698-29.446-6.674-40.332-11.144 1.67-.04 2.914-.422 3.672-1.174.586-.588.88-1.398.88-2.406v-1.03h-3.612v.91c0 .758-.454 1.232-1.264 1.232-.687 0-1.099-.304-1.238-.912a1.912 1.912 0 0 1 .02-.72c.386-1.584 5.75-2.558 6.34-5.482.074-.376.172-1.178.012-2.326-.336-2.356-2.403-3.264-5.034-3.264-3.67 0-5.165 1.742-5.165 4.148v1.124h3.876l.009-1.414c0-.792.575-1.232 1.358-1.232.746 0 1.184.298 1.336.918.06.28.098.7-.031 1.016-.717 1.8-5.729 2.638-6.347 5.548-.138.65-.142 1.208-.033 1.91.063.382.175.708.321 1.006C-96.602 6.684-103.662.472-102.732-4.892c1.824-10.434 33.168-13.69 70.018-7.274C-16.517-9.34-1.95-5.118 9.128-.395a6.757 6.757 0 0 0-.475-.019c-2.525 0-4.783.944-5.005 3.519-.052.467-.052.667-.056.929l.004 5.938c0 .248.03.696.055.932.305 2.493 2.271 3.518 5.002 3.518 2.111 0 4.703-.604 4.989-3.525.038-.359.034-.755.034-.881v-.562h-3.651v.832c0 .022-.009.332-.045.53-.066.296-.314.988-1.36.988-1.026 0-1.29-.692-1.356-.988a3.641 3.641 0 0 1-.05-.658V3.714c-.002-.22.002-.396.028-.532.012-.096.201-.984 1.396-.984 1.19 0 1.374.888 1.387.984a2.7 2.7 0 0 1 .031.532V5.71H8.62v2.148h5.077V4.034c0-.258-.004-.448-.046-.929a3.709 3.709 0 0 0-.603-1.737C24.8 6.95 31.644 13.064 30.728 18.344" style="fill:#004098;fill-opacity:1;fill-rule:nonzero;stroke:none" transform="matrix(11.2709 0 0 -11.2709 1158.805 325.803)"/><path d="M234.356 372.895h16.594v-11.72h-16.594zm13.211-2.864h-9.824v-5.992h9.824z" style="fill:#004098;fill-opacity:1;fill-rule:nonzero;stroke:none" transform="matrix(11.2709 0 0 -11.2709 -806.65 4466.495)"/><path d="M0 0s-.459-7.758 5.807-10.972l-1.797-2.5s-4.604 3.038-5.694 6.36c-1.041-3.322-5.641-6.36-5.641-6.36l-1.792 2.5C-2.844-7.758-3.309 0-3.309 0Z" style="fill:#004098;fill-opacity:1;fill-rule:nonzero;stroke:none" transform="matrix(11.2709 0 0 -11.2709 1888.573 94.55)"/><path d="M0 0v-14.352h3.453v5.35h3.01v2.923h-3.01V0Z" style="fill:#004098;fill-opacity:1;fill-rule:nonzero;stroke:none" transform="matrix(11.2709 0 0 -11.2709 1982.836 88.618)"/><path d="M0 0c-5.147 0-9.303 3.094-9.303 6.868 0 3.802 4.156 6.86 9.303 6.86 5.133 0 9.348-3.058 9.348-6.86C9.348 3.094 5.133 0 0 0m5.83 6.868c0 2.178-2.648 3.93-5.83 3.93-3.197 0-5.785-1.752-5.785-3.93 0-2.148 2.588-3.9 5.785-3.9 3.182 0 5.83 1.752 5.83 3.9" style="fill:#004098;fill-opacity:1;fill-rule:nonzero;stroke:none" transform="matrix(11.2709 0 0 -11.2709 2192.581 405.05)"/><path d="M0 0c-1.047-3.322-5.248-6.11-5.248-6.11l-1.867 2.508C-1.164-.648-1.631 7.112-1.631 7.112h3.26S1.166-.648 7.061-3.602L5.252-6.11S1.049-3.322 0 0" style="fill:#004098;fill-opacity:1;fill-rule:nonzero;stroke:none" transform="matrix(11.2709 0 0 -11.2709 2132.902 174.703)"/><path d="M0 0v-14.352h-3.506v6.586h-4.482v2.926h4.482V0Z" style="fill:#004098;fill-opacity:1;fill-rule:nonzero;stroke:none" transform="matrix(11.2709 0 0 -11.2709 2289.923 88.618)"/><path d="M0 0h16.824v2.969H3.539v8.47H0Z" style="fill:#004098;fill-opacity:1;fill-rule:nonzero;stroke:none" transform="matrix(11.2709 0 0 -11.2709 2391.384 395.806)"/><path d="M300.625 388.395h-3.43v-16.677h3.43z" style="fill:#004098;fill-opacity:1;fill-rule:nonzero;stroke:none" transform="matrix(11.2709 0 0 -11.2709 -806.65 4466.495)"/><path d="M0 0h-2.285v3.004H0v4.778h3.49V-9.034H0Z" style="fill:#004098;fill-opacity:1;fill-rule:nonzero;stroke:none" transform="matrix(11.2709 0 0 -11.2709 2489.344 176.65)"/><path d="M0 0c-3.49 0-6.314-3.018-6.314-6.71 0-3.716 2.824-6.704 6.314-6.704 3.465 0 6.285 2.988 6.285 6.704C6.285-3.018 3.465 0 0 0m-.082-10.156c-1.576 0-2.848 1.54-2.848 3.436 0 1.905 1.272 3.448 2.848 3.448 1.568 0 2.842-1.543 2.842-3.448 0-1.896-1.274-3.436-2.842-3.436" style="fill:#004098;fill-opacity:1;fill-rule:nonzero;stroke:none" transform="matrix(11.2709 0 0 -11.2709 2398.627 88.607)"/><path d="M325.346 388.423h-3.555v-27.258h3.555z" style="fill:#004098;fill-opacity:1;fill-rule:nonzero;stroke:none" transform="matrix(11.2709 0 0 -11.2709 -806.65 4466.495)"/><path d="M0 0c2.324-4.418 5.279-6.542 5.279-6.542L7.863-4.5C1.613.899 1.98 6.691 1.982 11.075l-.002 2.82h-3.964l-.006-2.82c.002-4.384.427-10.059-5.879-15.575l2.594-2.042S-2.215-4.314 0 0" style="fill:#004098;fill-opacity:1;fill-rule:nonzero;stroke:none" transform="matrix(11.2709 0 0 -11.2709 2707.85 264.264)"/><path d="M318.166 387.321H305.49v-2.942h12.676zM343.053 388.423h3.549v-27.314h-3.549z" style="fill:#004098;fill-opacity:1;fill-rule:nonzero;stroke:none" transform="matrix(11.2709 0 0 -11.2709 -806.65 4466.495)"/><path d="M0 0v16.899h-3.549V-2.885l12.254.363V.155z" style="fill:#004098;fill-opacity:1;fill-rule:nonzero;stroke:none" transform="matrix(11.2709 0 0 -11.2709 2937.694 288.16)"/><path d="M0 0c-4.715 0-8.512-2.838-8.512-6.344 0-3.502 3.797-6.344 8.512-6.344 4.697 0 8.51 2.842 8.51 6.344C8.51-2.838 4.697 0 0 0m-.057-9.518c-2.619 0-4.742 1.432-4.742 3.18 0 1.75 2.123 3.17 4.742 3.17 2.619 0 4.731-1.42 4.731-3.17 0-1.748-2.112-3.18-4.731-3.18" style="fill:#004098;fill-opacity:1;fill-rule:nonzero;stroke:none" transform="matrix(11.2709 0 0 -11.2709 3521.403 252.871)"/><path d="M388.789 388.423h3.529v-13.89h-3.529z" style="fill:#004098;fill-opacity:1;fill-rule:nonzero;stroke:none" transform="matrix(11.2709 0 0 -11.2709 -806.65 4466.495)"/><path d="M0 0v-7.508l12.244.302v2.78L3.5-4.634v1.746h7.711v7.472H-.025V1.721h7.697V0Z" style="fill:#004098;fill-opacity:1;fill-rule:nonzero;stroke:none" transform="matrix(11.2709 0 0 -11.2709 3406.426 148.924)"/><path d="M0 0h-3.113v2.878H0v9.954h3.539v-27.246H0Z" style="fill:#004098;fill-opacity:1;fill-rule:nonzero;stroke:none" transform="matrix(11.2709 0 0 -11.2709 3329.622 233.235)"/><path d="M0 0c-4.234 0-6.719-5.084-6.719-11.356 0-6.27 2.485-11.362 6.719-11.362 4.233 0 6.711 5.092 6.711 11.362C6.711-5.084 4.233 0 0 0m0-19.68c-1.773 0-2.719 3.733-2.719 8.324 0 4.604.946 8.325 2.719 8.325 1.779 0 2.719-3.721 2.719-8.325 0-4.591-.94-8.324-2.719-8.324" style="fill:#004098;fill-opacity:1;fill-rule:nonzero;stroke:none" transform="matrix(11.2709 0 0 -11.2709 3211.87 97.61)"/></svg>