<svg xmlns="http://www.w3.org/2000/svg" width="746.068" height="112.5" viewBox="0 0 746.068 112.5"><path d="M112.445 53.746c.04.823.063 1.641.069 2.456v.045c0 26.023-17.67 47.921-41.673 54.345a56.774 56.774 0 0 1-12.05 1.849 58.888 58.888 0 0 1-3.659.05C26.662 111.934 3.378 90.228.336 62.435a54.597 54.597 0 0 1-.268-3.622A59.164 59.164 0 0 1 0 56.365v-.118C0 25.187 25.183 0 56.255 0c26.499 0 48.713 18.316 54.683 42.969a56.396 56.396 0 0 1 1.507 10.777ZM85.948 28.02c-3.291-.91-5.725-1.691-6.443-3.203-.339-.716-.131-1.436.337-1.773.508-.371 1.192-.247 1.989.142 1.179.571 2.62 1.418 3.728 1.554 3.226.389 2.636-4.544-3.16-7.408-3.409-1.693-6.746-2.387-11.266-2.219-1.673.068-3.251.008-4.651-.213-2.113-.326-4.702-1.223-6.446-1.586-1.334-.281-2.094-.244-2.413.2-.294.421-.2 1.041.613 2.07 1.632 2.056 4.202 4.344 2.887 9.695-3.255 13.267 1.202 19.339 5.743 20.336 2.544.565 4.888-.032 6.32-1.517 1.36-1.423 1.947-3.829.636-5.867-2.005-3.122-2.712-5.836-.921-6.964 1.637-1.033 3.963-.081 5.731 3.874 2.828 6.337 6.509 8.018 10.19 3.51 3.015-3.692 2.896-9.038-2.874-10.631ZM75.706 62.648c-15.257-9.141-22.824-12.757-28.999-17.165-10.232-7.294-11.85-12.73-12.163-16.512-.557-6.768 4.565-12.861 9.78-15.733.402-.245 1.092-.807.792-1.578-.303-.778-1.237-.628-1.587-.552-11.663 2.474-22.997 12.743-21.237 26.452.702 5.43 4.157 14.6 22.045 25.132 6.101 3.59 11.368 6.312 19.638 11.045 11.197 6.401 16.351 14.648 9.416 23.644-.526.628-.979 1.28-.789 1.848.213.658 1.078.771 1.886.408 5.322-2.451 9.719-6.13 11.813-9.541 3.686-6.006 5.522-17.784-10.595-27.448Zm-17.846 36.5c-1.352-.389-3.404-1.026-5.115-1.773-2.157-.941-4.106-1.974-4.967-2.826-.563-.566-.65-1.205-.2-1.862 2.579-3.706 3.305-5.173 4.026-6.916 1.531-3.693.018-4.05-2.358-3.366-2.583.738-4.628 1.493-6.211 2.088-2.221.828-3.594 1.335-4.402.941-.842-.408-.997-1.87-1.3-4.294a51.615 51.615 0 0 0-1.039-5.612c-.955-3.847-2.602-3.108-3.962-1.536-1.695 2.057-2.629 4.602-3.331 5.938-.376.715-.808.952-1.334.839-1.173-.25-2.723-2.067-4.415-4.226-2.47-3.158-3.573-5.586-4.859-5.735-2.734-.319-1.518 6.145 1.047 11.473 2.502 5.215 6.383 10.348 12.884 14.455 7.417 4.694 18.377 6.399 25.11 5.452 2.126-.3 2.547-2.43.426-3.04Z" style="fill-rule:nonzero;fill:#0046ff"/><path d="M190.049 68.291V28.364c0-2.681-.462-4.067-1.92-5.676-.916-1.152-.307-2.152.844-2.152h13.13v47.755h-12.054Zm13.361 14.895v8.676h-43.843c-9.29 0-12.974-2.383-12.974-10.134V70.594c0-1.538-.534-2.689-1.61-3.992-.92-1.151-.311-2.223.765-2.223h13.054v15.735c0 2.382.765 3.072 3.147 3.072h41.461Zm-50.519-53.667c0-2.533-.152-3.911-1.618-5.529-.916-1.151-.302-2.227.769-2.227h13.285v10.214c0 10.054 9.832 15.97 18.735 18.962l-3.303 6.218c-.995 1.844-4.76 1.151-11.365-2.916-3.76-2.302-7.369-5.378-9.751-8.6-2.836 4.071-6.37 7.449-10.441 10.138-4.681 3.071-10.668 5.987-11.668 4.067l-3.533-6.68c10.213-3.992 18.89-10.672 18.89-20.424v-3.223ZM264.752 69.366V28.364c0-2.681-.387-3.912-1.841-5.677-1-1.151-.386-2.151.765-2.151h13.13v18.121h8.756v8.676h-8.756v22.033h-12.054Zm-30.327-15.432c5.294 0 8.365-4.071 8.365-8.983 0-5.222-3.071-9.214-8.365-9.214-5.374 0-8.37 3.992-8.37 9.214 0 4.912 2.996 8.983 8.37 8.983m43.305 29.251v8.676h-43.074c-9.29 0-12.979-2.382-12.979-10.134v-8.062c0-1.538-.533-2.685-1.609-3.992-.924-1.151-.306-2.227.769-2.227h13.05v12.668c0 2.382.769 3.071 3.151 3.071h40.692Zm-48.91-56.968c0-2.685-.151-3.916-1.609-5.681-1-1.151-.387-2.147.765-2.147h13.129v8.596h17.428v8.45h-8.062c2.378 2.685 3.84 5.983 3.84 9.899 0 9.671-7.143 17.049-19.886 17.049-12.668 0-19.882-7.378-19.882-17.049 0-3.992 1.378-7.294 3.681-9.899h-8.059v-8.45h18.655v-.768ZM340.031 84.099V70.511h-31.865v11.361c0 1.613.694 2.227 2.454 2.227h29.411Zm-43.688-15.357c0-1.534-.537-2.685-1.613-3.991-.92-1.156-.307-2.227.769-2.227h54.59c1.223 0 1.765.386 1.765 1.693v28.02h-47.066c-5.369 0-8.445-3.227-8.445-7.983V68.742Zm43.764-36.696c.075-1.076-.538-1.614-1.841-1.614h-41.385v-8.369h45.217c8.601 0 10.521 2.307 9.832 9.752l-1.463 15.352h10.37v8.449h-73.17v-8.449h51.057l1.383-15.121ZM401.044 64.597c3.533 0 6.836.231 9.827.613v-5.525h-19.734v5.525a78.269 78.269 0 0 1 9.907-.613m16.277-31.251c0-4.298-5.063-6.214-16.277-6.214-11.21 0-16.277 1.916-16.277 6.214 0 4.302 5.067 6.218 16.277 6.218 11.214 0 16.277-1.916 16.277-6.218m.613 45.839c0-4.529-5.832-6.374-16.89-6.374-11.054 0-16.89 1.845-16.89 6.374s5.836 6.374 16.89 6.374c11.058 0 16.89-1.845 16.89-6.374m11.21-45.839c0 8.525-8.521 14.285-28.1 14.285s-28.1-5.76-28.1-14.285c0-8.521 8.521-14.277 28.1-14.277s28.1 5.756 28.1 14.277m.613 45.839c0 9.289-10.596 14.588-28.713 14.588s-28.713-5.299-28.713-14.588c0-4.529 2.529-8.139 7.294-10.672h-.232v-8.828h-14.974v-8.298h73.17v8.298h-14.97v8.828h-.231c4.76 2.533 7.369 6.143 7.369 10.672M497.606 92.782V28.444c0-2.689-.387-3.916-1.84-5.685-1-1.151-.387-2.226.764-2.226h13.13v72.249h-12.054Zm-53.511-60.653v-8.672h44.225v8.672h-15.281v12.747c0 8.37 3.605 14.819 9.135 20.269 2.995 2.76 6.6 5.373 10.213 7.445l-4.298 6.831c-1.231 1.614-6.142-1.529-11.214-5.907-4.831-4.302-7.827-8.138-9.751-12.365-2.227 4.916-6.752 10.214-10.748 13.899-7.294 6.756-10.596 8.138-11.823 6.756l-5.223-6.605c3.921-2.529 7.836-5.218 10.908-8.37 6.449-6.369 10.285-12.974 10.285-21.877V32.129h-16.428ZM526.531 31.132v-8.676h55.968v8.676h-21.57v.386c0 8.828 14.432 16.202 27.1 19.349l-2.996 7.214c-.618 1.689-10.676-1.614-15.201-3.836-6.147-3.076-11.899-7.067-14.895-11.29-2.844 4.298-8.218 7.832-13.974 10.827-5.222 2.836-16.272 6.37-17.121 4.378l-2.845-7.067c12.214-3.146 27.184-10.134 27.184-19.575v-.386h-21.65ZM591.1 63.299v8.68h-30.331v20.806h-12.432V71.979H517.93v-8.68h73.17ZM631.228 48.022c0-5.298-2.912-9.751-8.828-9.751-5.831 0-8.831 4.453-8.831 9.751 0 5.143 3.075 9.597 8.831 9.597 5.836 0 8.828-4.454 8.828-9.597m20.579 44.759V82.11c-2.147.542-4.992.693-8.218.693h-48.062v-8.676h21.042v-8.521c-8.756-2.071-14.668-8.832-14.668-17.584 0-3.684 1.076-7.214 3.223-10.062h-7.677v-8.521h19.273v-2.147c0-2.765-.151-4.071-1.534-5.68-1-1.227-.311-2.303.841-2.303h12.823v10.13h17.738v8.521h-7.071c2.151 2.924 3.383 6.378 3.383 10.062 0 8.441-5.53 15.126-13.899 17.428v8.677h22.806V28.519c0-2.76-.462-4.143-1.92-5.681-.925-1.302-.307-2.302.844-2.302h13.13v72.245h-12.054ZM724.262 92.782V28.444c0-2.689-.306-3.916-1.764-5.685-.996-1.151-.462-2.226.689-2.226h13.13v24.268h9.751v8.823h-9.751v39.158h-12.055Zm-35.082-61.88c0-2.689-.311-3.92-1.694-5.68-1-1.152-.458-2.227.614-2.227h13.592v21.881c0 8.37 2.609 14.895 7.987 20.269 2.76 2.84 5.832 5.373 9.21 7.445l-4.147 6.831c-1.072 1.614-5.063-.844-10.824-6.676-3.071-3.071-6.604-7.756-7.911-11.365-2.685 5.298-5.907 9.369-10.13 13.668-6.449 6.525-9.294 8.214-10.369 6.756l-4.992-6.605c3.765-2.529 6.609-5.218 9.597-8.37 6.142-6.369 9.067-12.974 9.067-21.877v-14.05Z" style="fill:#0046ff"/></svg>