<svg xmlns="http://www.w3.org/2000/svg" width="487.81305pt" height="276.43665pt" fill-rule="evenodd" viewBox="0 0 487.81305 276.43664"><path d="M143.524 421.53v8.784c0 9.076-5.669 15.196-12.416 15.196h-5.859v4.602h5.981c10.706 0 18.849-8.466 18.849-19.268h-.003.003v-13.907h-6.555M164.519 416.937v38.185a4.84 4.84 0 0 1-4.839 4.831h-1.74v-43.016z" style="fill:#ef7d28;stroke:none" transform="matrix(2.16857 0 0 2.16857 17.114 -723.42)"/><path d="M160.564 428.266h9.125v4.602h-9.125zM127.397 416.937h17.042v4.602h-17.042zM195.56 422.661l10.736 14.857a4.592 4.592 0 0 0 3.656 1.898l5.316-.009-16.245-22.47h-4.745a4.566 4.566 0 0 0-3.654 1.895l-14.872 20.575h7.7zM173.854 450.121h43.201v4.6h-43.201z" style="fill:#ef7d28;stroke:none" transform="matrix(2.16857 0 0 2.16857 17.114 -723.42)"/><path d="M16.081 427.151c-4.531-2.123-8.25-3.832-8.25-7.293 0-2.649 2.115-4.574 6.299-4.574 1.538 0 2.798.182 4.098.419.68.12 1.406.217 2.005.217 3.655 0 5.717-2.177 7.086-6.312l.569-1.689c-.583-.237-6.554-2.859-14.336-2.859-12.385 0-18.922 7.942-18.92 16.18 0 4.16 1.304 7.169 3.34 9.542 2.626 3.053 6.367 5.049 9.87 6.756 5.1 2.502 9.706 4.357 9.706 8.065 0 3.294-3.4 5.166-7.95 5.166-6.232 0-11.68-3.563-12.372-3.994l-5.118 9.592c.91.516 7.5 4.7 18.346 4.7 11.557-.009 20.308-6.633 20.308-16.83 0-10.144-8.11-13.904-14.68-17.086zM61.283 431.887l20.965-25.705H67.31l-16.72 22.18h-.25v-22.18H38.03l.002 54.448h.733c5.322 0 11.66-2.461 11.66-11.355v-12.499h.248l17.043 23.177h15.668zM82.945 347.858c-4.335.817-10.762 4.749-10.74 11.709.017 6.32 5.183 10.149 5.197 18.426.025 6.228-3.409 10.423-7.119 12.746a57.798 57.798 0 0 1 4.951-.219c3.794-.012 6.08.351 6.22.375l19.447-23.866c-5.4-8.083-11.707-14.358-17.956-19.171zM99.281 412.296c2.45-3.809 2.759-9.882 2.965-16.066.232-5.772 1.435-10.114 9.153-10.14 1.709-.006 3.339.228 6.291.22 11.307-.05 18.69-3.944 23.282-6.5-9.382-5.981-23.078-12.089-40.071-12.781-1.107 3.126-9.717 27.07-10.369 29.001.098.116 1.607 1.808 3.49 5.101 2.778 4.529 4.269 8.366 5.26 11.165z" style="fill:#dd1c39;stroke:none" transform="matrix(2.16857 0 0 2.16857 17.114 -723.42)"/><path d="M58.207 392.74c-.984.006-1.472-.65-1.605-1.781a95469 95469 0 0 1-5.713-52.353c-.105-.985-.349-2.787-.352-3.431-.003-1.037.674-1.579 1.47-1.582 2.304-.006 14.86 2.935 28.187 12.277-3.84 1.082-10.784 5.075-10.755 13.343.027 7.319 5.265 11.349 5.294 18.691.043 11.942-13.684 14.83-16.526 14.836zM100.397 415.47c.211.555.407 1.021.606 1.349.305.519.704.754 1.193.753.313-.003.692-.106 1.112-.298 1.025-.469 41.632-19.374 47.756-22.199.886-.427 2.57-1.177 3.126-1.503.575-.328.837-.805.837-1.292a1.559 1.559 0 0 0-.235-.798c-.764-1.238-4.693-5.407-11.264-9.965-5.214 2.874-13.357 7.312-25.47 7.362-2.969.003-3.641-.196-5.669-.187-5.913.02-7.39 2.551-7.607 7.734-.037.979-.052 2.297-.109 3.741-.189 4.638-.736 11.027-4.276 15.303z" style="fill:#ef7d28;stroke:none" transform="matrix(2.16857 0 0 2.16857 17.114 -723.42)"/></svg>