<svg xmlns="http://www.w3.org/2000/svg" xml:space="preserve" width="344.034" height="120.408" viewBox="0 0 344.034 120.40799"><defs><clipPath id="a" clipPathUnits="userSpaceOnUse"><path d="M0 127.559h425.197V0H0Z"/></clipPath></defs><g clip-path="url(#a)" transform="matrix(1.33333 0 0 -1.33333 -64.619 133.333)"><path d="M0 0v7.052h-4.667V.17a3.436 3.436 0 0 1 3.432-3.432h19.58V0Z" style="fill:#ff7a00;fill-opacity:1;fill-rule:nonzero;stroke:none" transform="translate(288.145 13.76)"/><path d="M0 0c-3.881 0-5.254 3.819-5.254 8.535 0 4.708 1.373 8.532 5.254 8.532 3.877 0 5.252-3.824 5.252-8.532C5.252 3.819 3.877 0 0 0m0 20.396c-6.202 0-10.135-5.31-10.135-11.861C-10.135 1.977-6.202-3.337 0-3.337c6.196 0 10.13 5.314 10.13 11.872 0 6.551-3.934 11.861-10.13 11.861" style="fill:#ff7a00;fill-opacity:1;fill-rule:nonzero;stroke:none" transform="translate(152.934 20.991)"/><path d="M0 0h1.231a3.408 3.408 0 0 1 3.404 3.408v27.057H0Z" style="fill:#ff7a00;fill-opacity:1;fill-rule:nonzero;stroke:none" transform="translate(166.74 10.498)"/><path d="M0 0c-3.88 0-5.254 3.819-5.254 8.535 0 4.708 1.374 8.532 5.254 8.532 3.878 0 5.252-3.824 5.252-8.532C5.252 3.819 3.878 0 0 0m0 20.396c-6.201 0-10.135-5.31-10.135-11.861C-10.135 1.977-6.201-3.337 0-3.337c6.197 0 10.13 5.314 10.13 11.872 0 6.551-3.933 11.861-10.13 11.861" style="fill:#ff7a00;fill-opacity:1;fill-rule:nonzero;stroke:none" transform="translate(253.583 20.991)"/><path d="M0 0h1.231a3.408 3.408 0 0 1 3.404 3.408v27.057H0Z" style="fill:#ff7a00;fill-opacity:1;fill-rule:nonzero;stroke:none" transform="translate(267.388 10.498)"/><path d="M0 0h4.656v21.835H0V17.72h-4.872v-3.255H0v-2.537h-4.872V8.673H0Z" style="fill:#ff7a00;fill-opacity:1;fill-rule:nonzero;stroke:none" transform="translate(301.236 19.126)"/><path d="M0 0h10.665v3.249h-21.239v12.598h-4.649V3.416A3.42 3.42 0 0 1-11.809 0h7.158v-8.059h-12.942v-3.256H12.94v3.256H0Z" style="fill:#ff7a00;fill-opacity:1;fill-rule:nonzero;stroke:none" transform="translate(195.005 25.07)"/><path d="M0 0h1.231A3.412 3.412 0 0 1 4.64 3.41v26.932H0Z" style="fill:#ff7a00;fill-opacity:1;fill-rule:nonzero;stroke:none" transform="translate(234.09 10.496)"/><path d="M219.949 22.524h-4.893v6.838h4.893zm7.123 10.019h-2.889v8.362h-4.234v-8.288h-4.893v8.288h-4.235V22.689a3.415 3.415 0 0 1 3.412-3.414h6.541a3.411 3.411 0 0 1 3.409 3.414v6.606h2.889V10.496h1.232a3.41 3.41 0 0 1 3.406 3.41v26.932h-4.638z" style="fill:#ff7a00;fill-opacity:1;fill-rule:nonzero;stroke:none"/><path d="M0 0c.437-.943 1.604-1.353 2.6-1.353h3.106l-8.273 16.782H-5.53c-.988-.014-2.091-.341-2.591-1.351l-7.617-15.431h5.263l5.568 11.739z" style="fill:#ff7a00;fill-opacity:1;fill-rule:nonzero;stroke:none" transform="translate(292.166 25.617)"/><path d="M0 0c-3.212 1.504-5.845 2.717-5.845 5.168 0 1.875 1.501 3.238 4.461 3.238 1.092 0 1.984-.127 2.903-.296.482-.082 1-.154 1.423-.154 2.59 0 4.049 1.544 5.02 4.474l.401 1.195c-.412.167-4.641 2.026-10.155 2.026-8.775 0-13.408-5.623-13.404-11.464 0-2.947.922-5.077 2.365-6.758 1.863-2.163 4.512-3.578 6.994-4.786 3.613-1.774 6.877-3.088 6.877-5.715 0-2.332-2.41-3.659-5.633-3.659-4.416 0-8.274 2.522-8.765 2.829l-3.625-6.797c.642-.365 5.31-3.326 12.997-3.326 8.186.004 14.387 4.695 14.387 11.922C10.401-4.918 4.656-2.255 0 0" style="fill:#ea002c;fill-opacity:1;fill-rule:nonzero;stroke:none" transform="translate(65.447 33.718)"/><path d="m0 0 14.855 18.21H4.27L-7.575 2.496h-.178V18.21h-8.721l.002-38.575h.519c3.772 0 8.262 1.746 8.262 8.045v8.855h.172l12.076-16.42h11.1z" style="fill:#ea002c;fill-opacity:1;fill-rule:nonzero;stroke:none" transform="translate(97.469 30.365)"/><path d="M0 0c-3.067-.576-7.622-3.362-7.607-8.293.014-4.478 3.674-7.192 3.685-13.057.017-4.41-2.415-7.382-5.044-9.03a41.48 41.48 0 0 0 3.507.159c2.688.006 4.306-.252 4.407-.266l13.776 16.905A57.13 57.13 0 0 1 0 0" style="fill:#ea002c;fill-opacity:1;fill-rule:nonzero;stroke:none" transform="translate(112.813 89.894)"/><path d="M0 0c1.736 2.696 1.951 7.002 2.099 11.383.165 4.087 1.016 7.163 6.485 7.184 1.211.002 2.367-.164 4.456-.158 8.012.036 13.243 2.796 16.495 4.606-6.647 4.237-16.35 8.562-28.39 9.052-.784-2.213-6.886-19.174-7.344-20.545.068-.078 1.137-1.28 2.471-3.617C-1.76 4.701-.702 1.982 0 0" style="fill:#ea002c;fill-opacity:1;fill-rule:nonzero;stroke:none" transform="translate(124.392 44.245)"/><path d="M0 0c-.699-.005-1.047.463-1.142 1.263-.086.8-3.532 32.319-4.046 37.091-.072.695-.246 1.972-.251 2.429 0 .737.478 1.117 1.041 1.119 1.634.005 10.531-2.079 19.974-8.697-2.721-.766-7.642-3.596-7.623-9.453.022-5.183 3.732-8.039 3.753-13.24C11.737 2.051 2.012.007 0 0" style="fill:#ff7a00;fill-opacity:1;fill-rule:nonzero;stroke:none" transform="translate(95.294 58.097)"/><path d="M0 0c.15-.394.287-.722.427-.956.219-.367.504-.535.848-.531.22 0 .49.073.787.209.726.333 29.496 13.724 33.832 15.726.629.302 1.821.834 2.217 1.065.406.232.592.571.592.916 0 .195-.058.388-.165.566-.541.876-3.327 3.828-7.98 7.061-3.697-2.035-9.466-5.182-18.047-5.218-2.103-.003-2.58.141-4.012.132-4.193-.011-5.24-1.804-5.392-5.479-.027-.693-.037-1.627-.076-2.649C2.898 7.558 2.509 3.028 0 0" style="fill:#ff7a00;fill-opacity:1;fill-rule:nonzero;stroke:none" transform="translate(125.18 41.995)"/></g></svg>