<svg xmlns="http://www.w3.org/2000/svg" width="610.073" height="292.282" viewBox="0 0 161.41514 77.332951"><path d="M13.1 51.114c-2.47-1.153-4.503-2.09-4.503-3.986 0-1.442 1.152-2.498 3.44-2.498.84 0 1.528.102 2.237.232.375.063.773.12 1.096.12 1.999 0 3.123-1.193 3.873-3.447l.312-.926c-.318-.13-3.583-1.561-7.836-1.561-6.768 0-10.334 4.338-10.334 8.84 0 2.272.705 3.918 1.823 5.213 1.431 1.67 3.475 2.76 5.394 3.69 2.783 1.375 5.298 2.38 5.298 4.413 0 1.794-1.857 2.822-4.338 2.822-3.407 0-6.382-1.948-6.763-2.186L0 67.08c.5.284 4.105 2.567 10.028 2.567 6.313 0 11.094-3.623 11.094-9.193 0-5.542-4.429-7.597-8.023-9.34M37.799 53.703l11.458-14.042h-8.165l-9.13 12.117h-.143V39.661h-6.728V69.41h.397c2.913 0 6.377-1.346 6.377-6.2v-6.832h.13l9.318 12.668h8.563zM49.637 7.79c-2.367.443-5.876 2.595-5.865 6.4 0 3.452 2.828 5.547 2.833 10.072.017 3.402-1.856 5.69-3.89 6.962.83-.074 1.721-.12 2.71-.12 2.072-.003 3.327.188 3.395.2l10.635-13.038A44.263 44.263 0 0 0 49.637 7.79" style="fill:#dd072c;fill-opacity:1;fill-rule:nonzero;stroke:none;stroke-width:1.45358"/><path d="M58.563 43c1.34-2.078 1.505-5.4 1.619-8.778.13-3.152.789-5.525 5.002-5.542.937-.004 1.828.125 3.44.119 6.178-.029 10.215-2.152 12.725-3.549-5.133-3.27-12.616-6.61-21.894-6.984-.608 1.71-5.315 14.791-5.673 15.848.057.062.88.988 1.908 2.788 1.522 2.475 2.334 4.57 2.873 6.098" style="fill:#dd072c;fill-opacity:1;fill-rule:nonzero;stroke:none;stroke-width:1.45358"/><path d="M36.118 32.314c-.534 0-.806-.352-.874-.971-.069-.613-2.726-24.927-3.118-28.606-.062-.54-.193-1.528-.198-1.874 0-.573.374-.863.806-.863 1.26-.004 8.12 1.601 15.404 6.706-2.1.59-5.9 2.77-5.882 7.29.016 3.998 2.879 6.2 2.896 10.215.024 6.524-7.478 8.097-9.034 8.103M59.177 44.737c.113.301.22.557.329.733.165.284.386.42.653.414.17 0 .375-.062.607-.164.562-.256 22.746-10.584 26.09-12.129.49-.238 1.409-.641 1.71-.823.312-.176.46-.443.46-.704 0-.148-.045-.3-.131-.437-.415-.676-2.56-2.953-6.155-5.446-2.85 1.568-7.302 3.998-13.917 4.026-1.624 0-1.987-.108-3.095-.102-3.236.004-4.037 1.391-4.156 4.224-.025.534-.029 1.255-.063 2.045-.101 2.532-.402 6.024-2.333 8.363M71.424 69.352c-2.646 0-4.65-.699-5.973-1.51l1.323-3.004c1.22.823 2.736 1.453 4.343 1.453 1.687 0 2.754-.698 2.754-1.788 0-1.244-1.845-1.863-3.202-2.402-1.993-.8-4.225-1.834-4.225-4.815 0-2.794 2.232-4.781 6.11-4.781 2.901 0 4.911.908 5.065.982l-.21.665c-.16.55-.58 1.941-1.902 1.941-.943 0-1.528-.454-2.987-.454-1.317 0-2.124.557-2.124 1.442 0 1.108 1.448 1.568 3.06 2.204 1.846.732 4.51 2.078 4.51 5.042 0 3.617-3.061 5.025-6.542 5.025M154.028 52.516c-3.935 0-7.262 3.197-7.262 8.438 0 5.36 3.22 8.398 8.04 8.398 3.827 0 5.803-1.664 6.053-1.817 0 0-.375-.613-.489-.784-.528-.869-1.14-1.152-1.817-1.152-1.357 0-1.533.562-3.361.562-3.157 0-4.247-2.459-4.32-4.088h10.543v-1.227c0-5.02-2.901-8.33-7.387-8.33m-3.168 6.638c0-1.84 1.294-3.549 3.1-3.549 2.033 0 3.157 1.755 3.185 3.549zM143.416 52.505c-1.965 0-3.697 1.607-4.406 2.305-.318-.744-.886-2.004-2.97-2.004-.556 0-1.079.13-1.079.13.12.557.454 1.772.454 3.901v12.174h4.123V57.524c.488-.386 1.555-1.402 3.174-1.425 1.09-.012 1.754.432 1.862.489l1.51-3.407c-.17-.108-.902-.676-2.668-.676M127.744 67.37c.29.738.977 1.618 2.425 1.618.76 0 1.743-.198 1.896-.26-.113-.472-.494-1.733-.494-4.566v-5.655c0-4.19-2.708-5.996-6.887-5.996-3.52 0-6.025 1.68-6.32 1.879 0 0 .17.295.284.5.352.602.665 1.476 1.692 1.476 1.034 0 1.902-.784 3.867-.784 2.14 0 3.191 1.04 3.191 2.624v.579h-1.351c-5.514 0-8.41 2.13-8.41 5.536 0 3.015 2.3 5.03 5.48 5.03 3.032 0 4.366-1.76 4.627-1.98m-.346-2.442c-.261.153-1.362 1.152-3.015 1.152-1.42 0-2.498-.857-2.498-2.282 0-1.204 1.164-2.249 3.39-2.249h2.123zM91.729 65.122c-.562.374-1.34.75-2.328.857-.182.017-.37.029-.563.029-2.566 0-4.173-1.936-4.173-4.804 0-3.01 1.613-5.167 4.6-5.332.124-.004.25-.012.374-.012.732 0 1.465.137 2.09.307zm4.077-11.59c-1.392-.573-3.737-1.01-5.923-1.01-.09 0-.187.004-.284.004-3.48.074-6.433 1.544-7.988 4.19-.756 1.278-1.187 2.845-1.187 4.662 0 5.173 3.333 7.734 6.82 7.978h1.175c.119-.013.232-.017.351-.029 1.068-.114 2.073-.415 2.959-.937V73.625c.016 1.857.908 3.021 2.14 3.48.403.148.846.228 1.3.228h.648V53.542c0-.004-.017-.004-.025-.012M114.146 63.85V52.925h-4.117V64.39c-.216.205-1.652 1.488-3.401 1.488-1.863 0-3.112-1.147-3.112-3.447v-9.505h-4.094v10.448c0 4.98 3.816 6.075 5.957 6.075 2.56 0 4.4-1.618 4.94-2.146.164.653.953 1.789 2.753 1.789.636 0 1.46-.188 1.533-.199-.119-.625-.46-2.09-.46-5.042" style="fill:#ee7112;fill-opacity:1;fill-rule:nonzero;stroke:none;stroke-width:1.45358"/></svg>