<svg xmlns="http://www.w3.org/2000/svg" xml:space="preserve" width="540.93359" height="93.516289" viewBox="0 0 540.9336 93.51629"><defs><clipPath id="a" transform="translate(-395.263 -263.837)"><path d="M430.309 331.639A33.143 33.143 0 1 0 397.16 298.5a33.14 33.14 0 0 0 33.149 33.139z" style="fill:none"/></clipPath></defs><g style="display:inline"><path d="M69.548 34.774A34.774 34.774 0 1 1 34.78 0a34.783 34.783 0 0 1 34.768 34.774Z" style="fill:#fff" transform="scale(1.34463)"/><path d="M34.778 67.802A33.143 33.143 0 1 0 1.629 34.663a33.14 33.14 0 0 0 33.149 33.139Z" style="fill:#007bc7" transform="scale(1.34463)"/><g clip-path="url(#a)" transform="matrix(1.34463 0 0 1.34463 -.36 0)"><path d="M430.435 314.488c14.565 0 27.049 4.057 32.4 9.828a33.474 33.474 0 0 0 2.781-13.416c0-19.021-15.761-34.423-35.18-34.421-19.419.002-35.172 15.408-35.172 34.427a33.581 33.581 0 0 0 2.78 13.41c5.337-5.771 17.83-9.828 32.391-9.828z" style="fill:#007bc7" transform="translate(-395.263 -263.837)"/><path d="M430.431 314.525c14.527 0 26.98 4.024 32.316 9.749a33.058 33.058 0 0 0 2.773-13.308c0-18.869-15.719-34.195-35.089-34.193-19.37.002-35.082 15.332-35.082 34.2a33.152 33.152 0 0 0 2.773 13.3c5.324-5.724 17.786-9.748 32.309-9.748z" style="fill:#007dc8" transform="translate(-395.263 -263.837)"/><path d="M430.427 314.562c14.489 0 26.91 3.991 32.232 9.67a32.628 32.628 0 0 0 2.766-13.2c0-18.715-15.678-33.966-35-33.964-19.322.002-34.992 15.256-34.992 33.97a32.736 32.736 0 0 0 2.766 13.2c5.312-5.685 17.742-9.676 32.228-9.676z" style="fill:#007eca" transform="translate(-395.263 -263.837)"/><path d="M430.422 314.6c14.452 0 26.842 3.957 32.15 9.59a32.2 32.2 0 0 0 2.759-13.092c0-18.563-15.637-33.738-34.909-33.736-19.272.002-34.9 15.18-34.9 33.741a32.3 32.3 0 0 0 2.759 13.087c5.295-5.634 17.693-9.59 32.141-9.59z" style="fill:#0080cb" transform="translate(-395.263 -263.837)"/><path d="M430.418 314.636c14.415 0 26.773 3.924 32.066 9.511a31.78 31.78 0 0 0 2.752-12.984c0-18.411-15.6-33.51-34.818-33.508-19.218.002-34.811 15.1-34.811 33.512a31.885 31.885 0 0 0 2.751 12.98c5.283-5.587 17.649-9.511 32.06-9.511z" style="fill:#0082cc" transform="translate(-395.263 -263.837)"/><path d="M430.414 314.673c14.377 0 26.7 3.891 31.983 9.432a31.373 31.373 0 0 0 2.745-12.877c0-18.258-15.556-33.281-34.728-33.279-19.172.002-34.721 15.028-34.721 33.284a31.458 31.458 0 0 0 2.744 12.872c5.269-5.541 17.604-9.432 31.977-9.432z" style="fill:#0084cd" transform="translate(-395.263 -263.837)"/><path d="M430.41 314.709c14.339 0 26.635 3.859 31.9 9.354a30.95 30.95 0 0 0 2.738-12.769c0-18.1-15.514-33.053-34.637-33.051-19.123.002-34.632 14.957-34.632 33.057a31.036 31.036 0 0 0 2.737 12.765c5.255-5.497 17.558-9.356 31.894-9.356z" style="fill:#0086cf" transform="translate(-395.263 -263.837)"/><path d="M430.406 314.746c14.3 0 26.566 3.826 31.816 9.274a30.538 30.538 0 0 0 2.73-12.661c0-17.952-15.473-32.824-34.546-32.822-19.073.002-34.541 14.876-34.541 32.826a30.61 30.61 0 0 0 2.73 12.657c5.241-5.448 17.512-9.274 31.811-9.274z" style="fill:#0088d0" transform="translate(-395.263 -263.837)"/><path d="M430.4 314.783c14.265 0 26.5 3.793 31.733 9.195a30.116 30.116 0 0 0 2.724-12.553c0-17.8-15.432-32.6-34.457-32.594-19.025.006-34.45 14.8-34.45 32.6a30.207 30.207 0 0 0 2.723 12.55c5.227-5.405 17.467-9.198 31.727-9.198z" style="fill:#008ad1" transform="translate(-395.263 -263.837)"/><path d="M430.4 314.82c14.227 0 26.429 3.759 31.65 9.116a29.715 29.715 0 0 0 2.716-12.446c0-17.647-15.391-32.367-34.366-32.365-18.975.002-34.36 14.724-34.36 32.369a29.8 29.8 0 0 0 2.715 12.442c5.211-5.357 17.418-9.116 31.645-9.116z" style="fill:#008cd3" transform="translate(-395.263 -263.837)"/><path d="M430.393 314.857c14.189 0 26.36 3.726 31.566 9.036a29.294 29.294 0 0 0 2.71-12.337c0-17.494-15.351-32.139-34.276-32.137-18.925.002-34.27 14.648-34.27 32.14a29.382 29.382 0 0 0 2.708 12.334c5.2-5.31 17.376-9.036 31.562-9.036z" style="fill:#008ed4" transform="translate(-395.263 -263.837)"/><path d="M430.389 314.894c14.151 0 26.291 3.693 31.482 8.957a28.9 28.9 0 0 0 2.7-12.23c0-17.341-15.309-31.91-34.185-31.909-18.876.001-34.18 14.573-34.18 31.912a28.97 28.97 0 0 0 2.7 12.227c5.194-5.264 17.334-8.957 31.483-8.957z" style="fill:#0090d5" transform="translate(-395.263 -263.837)"/><path d="M430.385 314.931c14.114 0 26.222 3.66 31.4 8.878a28.5 28.5 0 0 0 2.695-12.122c0-17.189-15.268-31.682-34.094-31.681-18.826.001-34.086 14.494-34.086 31.684a28.559 28.559 0 0 0 2.694 12.119c5.167-5.218 17.279-8.878 31.391-8.878z" style="fill:#0092d7" transform="translate(-395.263 -263.837)"/><path d="M430.381 314.968c14.076 0 26.153 3.627 31.315 8.8a28.1 28.1 0 0 0 2.689-12.015c0-17.036-15.227-31.453-34-31.452-18.773.001-34 14.421-34 31.455a28.151 28.151 0 0 0 2.687 12.012c5.154-5.168 17.234-8.8 31.309-8.8z" style="fill:#0094d8" transform="translate(-395.263 -263.837)"/><path d="M430.376 315.005c14.039 0 26.085 3.594 31.233 8.719a27.7 27.7 0 0 0 2.681-11.906c0-16.884-15.186-31.225-33.914-31.224-18.713 0-33.909 14.345-33.909 31.226a27.766 27.766 0 0 0 2.679 11.9c5.145-5.12 17.194-8.715 31.23-8.715z" style="fill:#0097d9" transform="translate(-395.263 -263.837)"/><path d="M430.372 315.042c14 0 26.016 3.56 31.149 8.64a27.293 27.293 0 0 0 2.674-11.8c0-16.73-15.145-31-33.823-31s-33.819 14.269-33.819 31a27.362 27.362 0 0 0 2.672 11.8c5.131-5.082 17.148-8.64 31.147-8.64z" style="fill:#0099db" transform="translate(-395.263 -263.837)"/><path d="M430.368 315.079c13.964 0 25.947 3.527 31.066 8.561a26.906 26.906 0 0 0 2.667-11.691c0-16.578-15.1-30.768-33.733-30.767-18.614 0-33.729 14.193-33.729 30.769a26.96 26.96 0 0 0 2.661 11.689c5.121-5.034 17.106-8.561 31.068-8.561z" style="fill:#009bdc" transform="translate(-395.263 -263.837)"/><path d="M430.364 315.116c13.926 0 25.877 3.494 30.982 8.481a26.5 26.5 0 0 0 2.66-11.583c0-16.425-15.063-30.539-33.642-30.538-18.564 0-33.639 14.117-33.639 30.54a26.553 26.553 0 0 0 2.658 11.581c5.103-4.987 17.056-8.481 30.981-8.481z" style="fill:#009ddd" transform="translate(-395.263 -263.837)"/><path d="M430.36 315.153c13.888 0 25.808 3.461 30.9 8.4a26.113 26.113 0 0 0 2.653-11.475c0-16.273-15.022-30.311-33.552-30.31-18.53.001-33.549 14.041-33.549 30.311a26.169 26.169 0 0 0 2.65 11.474c5.088-4.939 17.01-8.4 30.898-8.4z" style="fill:#009fdf" transform="translate(-395.263 -263.837)"/><path d="M430.355 315.19c13.852 0 25.74 3.428 30.816 8.323a25.72 25.72 0 0 0 2.646-11.368c0-16.119-14.981-30.082-33.462-30.081-18.464 0-33.458 13.965-33.458 30.083a25.777 25.777 0 0 0 2.643 11.366c5.075-4.895 16.966-8.323 30.815-8.323z" style="fill:#00a2e0" transform="translate(-395.263 -263.837)"/><path d="M430.351 315.226c13.814 0 25.671 3.4 30.733 8.245a25.343 25.343 0 0 0 2.638-11.26c0-15.967-14.94-29.854-33.371-29.853-18.415 0-33.368 13.889-33.368 29.854a25.4 25.4 0 0 0 2.636 11.259c5.061-4.849 16.92-8.245 30.732-8.245z" style="fill:#00a4e1" transform="translate(-395.263 -263.837)"/><path d="M430.347 315.263c13.776 0 25.6 3.362 30.649 8.165a24.946 24.946 0 0 0 2.632-11.151c0-15.815-14.9-29.626-33.281-29.625-18.365 0-33.279 13.813-33.279 29.625a25 25 0 0 0 2.63 11.151c5.047-4.803 16.874-8.165 30.649-8.165z" style="fill:#00a6e3" transform="translate(-395.263 -263.837)"/><path d="M430.343 315.3c13.738 0 25.533 3.329 30.565 8.086a24.559 24.559 0 0 0 2.625-11.044c0-15.662-14.858-29.4-33.19-29.4-18.316 0-33.189 13.737-33.189 29.4a24.611 24.611 0 0 0 2.623 11.044c5.033-4.757 16.828-8.086 30.566-8.086z" style="fill:#00a9e4" transform="translate(-395.263 -263.837)"/><path d="M430.339 315.337c13.7 0 25.464 3.3 30.482 8.007a24.184 24.184 0 0 0 2.618-10.936c0-15.509-14.817-29.169-33.1-29.168-18.267 0-33.1 13.661-33.1 29.168a24.236 24.236 0 0 0 2.615 10.936c5.021-4.711 16.784-8.007 30.485-8.007z" style="fill:#00abe5" transform="translate(-395.263 -263.837)"/><path d="M430.334 315.374c13.664 0 25.4 3.263 30.4 7.927a23.794 23.794 0 0 0 2.611-10.828c0-15.356-14.776-28.94-33.01-28.939-18.216 0-33.008 13.585-33.008 28.939a23.846 23.846 0 0 0 2.608 10.828c5.005-4.664 16.737-7.927 30.399-7.927z" style="fill:#00ade7" transform="translate(-395.263 -263.837)"/><path d="M430.33 315.411c13.626 0 25.327 3.23 30.316 7.848a23.425 23.425 0 0 0 2.6-10.72c0-15.2-14.735-28.712-32.919-28.712-18.167 0-32.918 13.51-32.918 28.711a23.469 23.469 0 0 0 2.6 10.721c4.996-4.618 16.696-7.848 30.321-7.848z" style="fill:#00b0e8" transform="translate(-395.263 -263.837)"/><path d="M430.326 315.448c13.588 0 25.258 3.2 30.232 7.769a23.049 23.049 0 0 0 2.6-10.613c0-15.051-14.694-28.483-32.829-28.483-18.117 0-32.828 13.434-32.828 28.482a23.1 23.1 0 0 0 2.594 10.614c4.975-4.572 16.643-7.769 30.231-7.769z" style="fill:#00b2ea" transform="translate(-395.263 -263.837)"/><path d="M430.322 315.485c13.551 0 25.189 3.163 30.149 7.69a22.684 22.684 0 0 0 2.589-10.5c0-14.9-14.653-28.255-32.738-28.255-18.068 0-32.738 13.358-32.738 28.254a22.726 22.726 0 0 0 2.587 10.506c4.964-4.532 16.6-7.695 30.151-7.695z" style="fill:#0fb5eb" transform="translate(-395.263 -263.837)"/><path d="M430.318 315.522c13.513 0 25.12 3.13 30.065 7.61a22.305 22.305 0 0 0 2.583-10.4c0-14.745-14.612-28.026-32.648-28.026-18.018 0-32.648 13.282-32.648 28.025a22.357 22.357 0 0 0 2.579 10.4c4.951-4.479 16.556-7.609 30.069-7.609z" style="fill:#1db7ec" transform="translate(-395.263 -263.837)"/><path d="M430.313 315.559c13.476 0 25.052 3.1 29.983 7.531a21.945 21.945 0 0 0 2.575-10.289c0-14.593-14.571-27.8-32.558-27.8-17.968 0-32.557 13.206-32.557 27.8a21.986 21.986 0 0 0 2.572 10.291c4.937-4.436 16.51-7.533 29.985-7.533z" style="fill:#27baee" transform="translate(-395.263 -263.837)"/><path d="M430.309 315.6c13.438 0 24.983 3.064 29.9 7.452a21.577 21.577 0 0 0 2.568-10.182c0-14.44-14.53-27.569-32.467-27.569-17.918 0-32.467 13.13-32.467 27.568a21.613 21.613 0 0 0 2.565 10.183c4.922-4.392 16.463-7.452 29.901-7.452z" style="fill:#2fbcef" transform="translate(-395.263 -263.837)"/><path d="M430.305 315.633c13.4 0 24.914 3.031 29.815 7.372a21.217 21.217 0 0 0 2.562-10.073c0-14.287-14.489-27.341-32.377-27.341-17.869 0-32.377 13.054-32.377 27.339a21.244 21.244 0 0 0 2.558 10.075c4.914-4.341 16.414-7.372 29.819-7.372z" style="fill:#37bef0" transform="translate(-395.263 -263.837)"/><path d="M430.305 315.717c13.383 0 24.879 3.011 29.775 7.325a21 21 0 0 0 2.558-10.008c0-14.194-14.47-27.173-32.333-27.173-17.845 0-32.333 12.979-32.333 27.171a21.029 21.029 0 0 0 2.554 10.01c4.903-4.314 16.396-7.325 29.779-7.325z" style="fill:#45c0f0" transform="translate(-395.263 -263.837)"/><path d="M430.305 315.8c13.364 0 24.845 2.992 29.735 7.277a20.785 20.785 0 0 0 2.554-9.942c0-14.1-14.451-27.005-32.289-27.005-17.822 0-32.29 12.9-32.29 27a20.816 20.816 0 0 0 2.55 9.945c4.897-4.282 16.376-7.275 29.74-7.275z" style="fill:#50c2f1" transform="translate(-395.263 -263.837)"/><path d="M430.305 315.885c13.346 0 24.811 2.973 29.694 7.23a20.574 20.574 0 0 0 2.551-9.877c0-14.008-14.432-26.837-32.245-26.837-17.813 0-32.246 12.829-32.246 26.835a20.6 20.6 0 0 0 2.546 9.879c4.895-4.257 16.354-7.23 29.7-7.23z" style="fill:#5bc4f1" transform="translate(-395.263 -263.837)"/><path d="M430.305 315.969c13.328 0 24.777 2.954 29.654 7.182a20.357 20.357 0 0 0 2.547-9.812c0-13.914-14.412-26.667-32.2-26.667-17.788 0-32.2 12.753-32.2 26.666a20.377 20.377 0 0 0 2.543 9.814c4.88-4.229 16.328-7.182 29.656-7.183z" style="fill:#64c7f2" transform="translate(-395.263 -263.837)"/><path d="M430.305 316.053c13.31 0 24.742 2.934 29.613 7.135a20.139 20.139 0 0 0 2.544-9.747c0-13.821-14.393-26.5-32.157-26.5-17.764 0-32.159 12.678-32.159 26.5a20.16 20.16 0 0 0 2.539 9.748c4.878-4.202 16.315-7.135 29.62-7.136z" style="fill:#6dc9f3" transform="translate(-395.263 -263.837)"/><path d="M430.305 316.138c13.292 0 24.708 2.914 29.573 7.086a19.922 19.922 0 0 0 2.54-9.681c0-13.728-14.374-26.331-32.113-26.331-17.739 0-32.115 12.6-32.115 26.33a19.951 19.951 0 0 0 2.534 9.683c4.876-4.173 16.289-7.087 29.581-7.087z" style="fill:#75cbf3" transform="translate(-395.263 -263.837)"/><path d="M430.305 316.222c13.274 0 24.674 2.9 29.533 7.039a19.725 19.725 0 0 0 2.536-9.616c0-13.635-14.355-26.163-32.069-26.163-17.714 0-32.072 12.528-32.072 26.162a19.737 19.737 0 0 0 2.531 9.617c4.865-4.144 16.267-7.038 29.541-7.039z" style="fill:#7dcdf4" transform="translate(-395.263 -263.837)"/><path d="M430.305 316.306c13.256 0 24.639 2.876 29.492 6.991a19.506 19.506 0 0 0 2.533-9.55c0-13.542-14.335-26-32.025-26-17.69 0-32.028 12.453-32.028 25.994a19.518 19.518 0 0 0 2.523 9.559c4.863-4.118 16.249-6.993 29.505-6.994z" style="fill:#84d0f4" transform="translate(-395.263 -263.837)"/><path d="M430.3 316.39c13.238 0 24.606 2.856 29.453 6.943a19.292 19.292 0 0 0 2.529-9.484c0-13.449-14.316-25.827-31.982-25.827-17.666 0-31.98 12.378-31.98 25.826a19.311 19.311 0 0 0 2.524 9.487c4.856-4.089 16.223-6.944 29.456-6.945z" style="fill:#8bd2f5" transform="translate(-395.263 -263.837)"/><path d="M430.3 316.474c13.22 0 24.572 2.837 29.412 6.9a19.09 19.09 0 0 0 2.526-9.419c0-13.356-14.3-25.659-31.938-25.659-17.638 0-31.94 12.3-31.94 25.658a19.091 19.091 0 0 0 2.52 9.421c4.85-4.064 16.206-6.9 29.42-6.901z" style="fill:#92d4f5" transform="translate(-395.263 -263.837)"/><path d="M430.3 316.558c13.2 0 24.538 2.818 29.372 6.848a18.879 18.879 0 0 0 2.523-9.353c0-13.263-14.279-25.49-31.9-25.49s-31.9 12.227-31.9 25.489a18.9 18.9 0 0 0 2.516 9.356c4.852-4.032 16.189-6.848 29.389-6.85z" style="fill:#99d6f6" transform="translate(-395.263 -263.837)"/><path d="M430.3 316.642c13.184 0 24.5 2.8 29.332 6.8a18.674 18.674 0 0 0 2.519-9.288c0-13.17-14.259-25.322-31.851-25.322s-31.853 12.152-31.853 25.321a18.674 18.674 0 0 0 2.512 9.29c4.841-4.002 16.163-6.799 29.341-6.801z" style="fill:#9fd9f7" transform="translate(-395.263 -263.837)"/><path d="M430.3 316.727c13.166 0 24.469 2.778 29.291 6.752a18.468 18.468 0 0 0 2.516-9.222c0-13.077-14.24-25.154-31.807-25.154s-31.81 12.077-31.81 25.153a18.471 18.471 0 0 0 2.51 9.225c4.83-3.976 16.14-6.753 29.3-6.754z" style="fill:#a5dbf7" transform="translate(-395.263 -263.837)"/><path d="M430.3 316.811c13.148 0 24.435 2.759 29.251 6.705a18.266 18.266 0 0 0 2.512-9.157c0-12.984-14.221-24.986-31.763-24.986s-31.766 12-31.766 24.984a18.256 18.256 0 0 0 2.5 9.16c4.83-3.947 16.124-6.705 29.266-6.706z" style="fill:#abddf8" transform="translate(-395.263 -263.837)"/><path d="M430.3 316.9c13.13 0 24.4 2.74 29.21 6.657a18.049 18.049 0 0 0 2.509-9.092c0-12.89-14.2-24.817-31.719-24.817-17.519 0-31.722 11.927-31.722 24.816a18.041 18.041 0 0 0 2.5 9.095c4.822-3.924 16.098-6.659 29.222-6.659Z" style="fill:#b1dff8" transform="translate(-395.263 -263.837)"/><path d="M430.3 316.979c13.112 0 24.366 2.72 29.17 6.61a17.861 17.861 0 0 0 2.5-9.027c0-12.8-14.182-24.649-31.675-24.649-17.493 0-31.679 11.853-31.679 24.648a17.847 17.847 0 0 0 2.5 9.029c4.815-3.89 16.078-6.609 29.184-6.611z" style="fill:#b7e1f9" transform="translate(-395.263 -263.837)"/><path d="M430.3 317.063c13.093 0 24.332 2.7 29.13 6.562a17.655 17.655 0 0 0 2.5-8.961c0-12.7-14.163-24.481-31.631-24.481s-31.635 11.778-31.635 24.48a17.637 17.637 0 0 0 2.493 8.964c4.807-3.863 16.055-6.562 29.143-6.564z" style="fill:#bce4f9" transform="translate(-395.263 -263.837)"/><path d="M430.3 317.147c13.075 0 24.3 2.682 29.089 6.514a17.441 17.441 0 0 0 2.5-8.895c0-12.611-14.144-24.313-31.587-24.313-17.443 0-31.592 11.7-31.592 24.312a17.442 17.442 0 0 0 2.49 8.9c4.8-3.836 16.031-6.515 29.1-6.518z" style="fill:#c1e6fa" transform="translate(-395.263 -263.837)"/><path d="M430.3 317.231c13.057 0 24.264 2.663 29.049 6.467a17.258 17.258 0 0 0 2.494-8.83c0-12.518-14.125-24.144-31.543-24.144s-31.548 11.627-31.548 24.143a17.228 17.228 0 0 0 2.486 8.833c4.793-3.806 16.011-6.466 29.062-6.469z" style="fill:#c7e8fa" transform="translate(-395.263 -263.837)"/><path d="M430.3 317.316c13.039 0 24.229 2.642 29.008 6.418a17.047 17.047 0 0 0 2.491-8.764c0-12.425-14.106-23.976-31.5-23.976s-31.5 11.552-31.5 23.975a17.032 17.032 0 0 0 2.483 8.768c4.782-3.779 15.985-6.419 29.018-6.421z" style="fill:#cceafb" transform="translate(-395.263 -263.837)"/><path d="M430.3 317.4c13.021 0 24.2 2.623 28.968 6.371a16.851 16.851 0 0 0 2.487-8.7c0-12.332-14.086-23.808-31.455-23.808s-31.461 11.477-31.461 23.807a16.832 16.832 0 0 0 2.478 8.7c4.783-3.747 15.968-6.37 28.983-6.37z" style="fill:#d1ecfb" transform="translate(-395.263 -263.837)"/><path d="M430.3 317.484c13 0 24.161 2.6 28.928 6.323a16.661 16.661 0 0 0 2.483-8.633c0-12.239-14.067-23.64-31.411-23.64s-31.417 11.4-31.417 23.639a16.636 16.636 0 0 0 2.474 8.637c4.774-3.722 15.943-6.323 28.943-6.326z" style="fill:#d6eefb" transform="translate(-395.263 -263.837)"/><path d="M430.3 317.568c12.985 0 24.127 2.585 28.887 6.276a16.459 16.459 0 0 0 2.48-8.568c0-12.146-14.048-23.472-31.367-23.472-17.319 0-31.374 11.327-31.374 23.471a16.428 16.428 0 0 0 2.471 8.571c4.768-3.693 15.924-6.275 28.903-6.278z" style="fill:#dbf0fc" transform="translate(-395.263 -263.837)"/><path d="M430.3 317.652c12.967 0 24.092 2.565 28.847 6.228a16.261 16.261 0 0 0 2.477-8.5c0-12.053-14.03-23.3-31.324-23.3-17.294 0-31.33 11.252-31.33 23.3a16.235 16.235 0 0 0 2.467 8.506c4.763-3.669 15.902-6.231 28.863-6.234z" style="fill:#e0f2fc" transform="translate(-395.263 -263.837)"/><path d="M430.3 317.736c12.949 0 24.059 2.546 28.807 6.181a16.072 16.072 0 0 0 2.474-8.437c0-11.96-14.01-23.136-31.281-23.136s-31.286 11.177-31.286 23.135a16.037 16.037 0 0 0 2.464 8.441c4.754-3.638 15.88-6.181 28.822-6.184z" style="fill:#e5f4fd" transform="translate(-395.263 -263.837)"/><path d="M430.3 317.82c12.931 0 24.025 2.527 28.767 6.133a15.875 15.875 0 0 0 2.47-8.372c0-11.866-13.991-22.966-31.237-22.966s-31.242 11.1-31.242 22.966a15.846 15.846 0 0 0 2.459 8.375c4.748-3.609 15.859-6.132 28.783-6.136z" style="fill:#e9f6fd" transform="translate(-395.263 -263.837)"/><path d="M430.3 317.9c12.913 0 23.991 2.506 28.727 6.085a15.688 15.688 0 0 0 2.466-8.307c0-11.773-13.972-22.8-31.193-22.8-17.221 0-31.2 11.026-31.2 22.8a15.65 15.65 0 0 0 2.456 8.31c4.744-3.577 15.838-6.08 28.744-6.088z" style="fill:#eef8fe" transform="translate(-395.263 -263.837)"/><path d="M430.3 317.989c12.895 0 23.956 2.487 28.686 6.037a15.485 15.485 0 0 0 2.463-8.241c0-11.68-13.953-22.63-31.149-22.63s-31.155 10.951-31.155 22.63a15.455 15.455 0 0 0 2.452 8.244c4.735-3.553 15.815-6.037 28.703-6.04z" style="fill:#f2fafe" transform="translate(-395.263 -263.837)"/><path d="M430.3 318.073c12.877 0 23.922 2.468 28.646 5.989a15.3 15.3 0 0 0 2.459-8.175c0-11.587-13.933-22.462-31.105-22.462s-31.112 10.876-31.112 22.462a15.262 15.262 0 0 0 2.449 8.179c4.729-3.525 15.793-5.99 28.663-5.993z" style="fill:#f7fcfe" transform="translate(-395.263 -263.837)"/><path d="M430.3 318.157c12.859 0 23.888 2.449 28.605 5.942a15.107 15.107 0 0 0 2.456-8.11c0-11.494-13.914-22.294-31.061-22.294s-31.068 10.8-31.068 22.294a15.074 15.074 0 0 0 2.444 8.113c4.724-3.496 15.772-5.941 28.624-5.945z" style="fill:#fbfdff" transform="translate(-395.263 -263.837)"/><path d="M430.3 318.241c12.841 0 23.854 2.429 28.565 5.894a14.917 14.917 0 0 0 2.452-8.044c0-11.4-13.895-22.126-31.017-22.126-17.139 0-31.024 10.726-31.024 22.126a14.882 14.882 0 0 0 2.44 8.048c4.717-3.469 15.75-5.894 28.584-5.898z" style="fill:#fff" transform="translate(-395.263 -263.837)"/></g><path d="M34.774 43.022A87.3 87.3 0 0 0 4.5 48.149a33.152 33.152 0 0 0 60.559 0 87.381 87.381 0 0 0-30.285-5.127z" style="fill:#007bc7" transform="scale(1.34463)"/></g><path d="M359.814 9.023c-14.9 0-25.15 6.691-25.15 16.272 0 9.5 10.25 15.889 25.15 15.889 14.824 0 25.229-6.388 25.229-15.89 0-9.58-10.405-16.27-25.229-16.27zm-219.377.916c-14.042 0-25.183 8.48-25.183 18.91 0 10.353 11.14 19.516 25.183 19.516 14.122 0 25.184-9.24 25.184-19.515S154.56 9.94 140.438 9.94zm89.729 1.223c1.022 1.282.943 4.726.943 6.248v35.776c0 4.565-5.189 5.445-8.648 5.445h-24.686c-2.28 0-2.671-.8-2.671-2.483V41.195h21.619c2.437 0 3.066-.72 3.066-2.562V15.967c0-1.682-.707-2.563-3.144-2.563H183.86v6.248h25.078V34.95h-25.628c.707 1.522 1.021 2.723 1.021 4.405v20.343c0 3.604 3.696 5.182 6.762 5.182h29.01c2.515 0 8.804-.002 11.005-2.084V86.33h10.772V13.885c0-1.842-1.18-2.723-3.54-2.723zm220.643.12c.856 1.322.855 4.513.855 6.07v69.052h10.74V13.771c0-1.634-1.167-2.49-3.58-2.49zm-191.471.644v6.037h42.937v19.172c0 1.91-.765 4.96-3.21 4.96H251.62v5.885h69.451v-5.884h-9.552c1.146-2.063 1.222-4.274 1.222-6.643v-20.24c0-1.758-1.375-3.287-3.744-3.287zm219.951 1.154v5.856h20.576c.84 0 1.146.474.84 1.501-1.834 6.875-7.119 14.363-25.082 20.116l2.217 4.584c10.696-2.197 21.488-6.85 28.517-13.883 7.641 6.006 16.579 10.965 25.213 14.205l4.586-7.902c-9.169-2.292-19.752-6.935-25.789-10.649 1.605-2.291 2.485-5.128 3.631-7.972h18.8V13.08zm-77.37.252v6.43h14.249c.764.076 1.222.459 1.299 1.146v.46c0 17.14-8.14 28.925-19.373 38.323l3.21 3.897c8.635-5.807 15.363-12.93 19.948-19.96 3.897 5.502 9.71 12.471 16.816 18.89l6.957-7.364c-7.03-4.89-14.145-11.143-20.257-17.867 2.215-4.89 3.897-12.253 4.279-17.525h13.307v-6.43zm-42.105 2.223c8.635 0 14.137 3.672 14.137 9.74 0 5.748-5.655 9.662-14.137 9.662-8.558 0-14.134-3.914-14.134-9.662 0-6.068 5.5-9.74 14.134-9.74zm-219.377.379c8.238 0 14.278 5.676 14.278 12.916 0 7.16-6.04 13.523-14.277 13.523-8.473 0-14.436-6.284-14.436-13.523 0-7.24 6.198-12.916 14.435-12.916zm184.538 29.224v5.883h16.074v10.096c-4.072 2.345-7.059 6.519-7.059 11.607 0 9.222 10.345 16.02 25.824 16.02 15.48 0 25.825-6.798 25.825-16.02 0-5.088-2.27-8.825-7.248-11.607V51.04h16.263v-5.883zm26.343 5.883h16.309v6.037c-2.256-.318-5.246-.771-7.813-.771-2.566 0-6.24.453-8.496.771zm119.801 3.35v5.959h29.524v26.752h10.468V60.35h29.823v-5.96zM105.37 55.9v6.072h29.733v24.97h10.748v-24.97h29.656V55.9ZM259.031 59c1.02 1.299 1.412 3.134 1.412 4.662v16.734c0 4.127 3.928 5.653 7.377 5.653h44.922V59Zm100.783 3.77c9.101 0 15.09 4.25 15.09 9.974 0 5.486-5.989 9.818-15.09 9.818-9.023 0-15.09-4.332-15.09-9.818 0-5.724 6.067-9.974 15.09-9.974zm-88.937 2.19h31.125v14.978h-28.459c-1.882 0-2.666-.994-2.666-2.293z" style="font-size:76.4105px;font-family:&quot;우리다움&quot;;text-align:center;text-anchor:middle;display:inline;opacity:1;fill:#0065af;fill-opacity:1;stroke-width:11.6457"/></svg>