<svg xmlns="http://www.w3.org/2000/svg" width="2477pt" height="352pt" viewBox="0 0 2477 352"><path d="M891.094 107.137v42.523h-33.102v-42.523L812.258 2.227h34.629l27.656 68.402 27.531-68.402h34.727ZM998.387 151.918c-35.774 0-53.883-18.363-53.883-45.164v-61.75c0-27.242 18.11-45.164 53.883-45.164a262.196 262.196 0 0 1 47.043 4.648l-4.012 29.028a341.895 341.895 0 0 0-43.031-3.567c-16.551 0-20.782 8.66-20.782 20.149V100.8c0 11.523 4.23 21.07 20.782 21.07 6.59.067 13.144-.414 19.64-1.367V75.496h31.192v69.484a188.033 188.033 0 0 1-50.832 7.098M826.578 349.352v-147.43h92.527v29.41h-59.363v27.023h54.746v29.407h-54.746v32.117h59.363v29.473ZM976.078 252.34v97.012h-31.574v-147.43h40.644l48.348 101.598V201.922h31.57v147.43h-40.8ZM1154.727 231.332v118.02h-33.102v-118.02h-39.563v-29.41h112.262v29.41ZM1211.32 349.352v-147.43h92.524v29.41h-59.422v27.023h54.805v29.407h-54.805v32.117h59.422v29.473ZM1381.98 303.52h-19.382v45.832h-33.102v-147.43h61.11c35.808 0 49.05 14.133 49.05 41.855v18.141c0 18.367-6.62 30.875-21.39 36.953l35.55 50.48h-39.34Zm24.352-56.497c0-11.14-4.234-15.437-17.73-15.437h-26.227v43.383h26.227c14.164 0 17.73-5.094 17.73-16.137ZM1526.64 231.332v118.02h-33.1v-118.02h-39.5v-29.41h112.163v29.41ZM1694.09 349.352h-34.504l-7.7-28.774h-49.273l-7.699 28.774h-34.406l44.75-147.43h44.176Zm-84.156-56.497h33.804l-16.773-61.746ZM1711.785 201.86h33.102v147.492h-33.102ZM1806.316 252.34v97.012h-31.636v-147.43h40.644l48.348 101.598V201.922h31.637v147.43h-40.868ZM1956.035 267.457l-2.226 81.895h-32.02l6.176-147.43h33.098l35.394 93.863 35.266-93.863h33.164l6.175 147.43h-32.019l-2.227-81.895-25.558 62.828h-29.57ZM2097.543 349.352v-147.43h92.621v29.41h-59.457v27.023h54.746v29.407h-54.746v32.117h59.457v29.473ZM2247.105 252.34v97.012h-31.543v-147.43h40.551l48.348 101.598V201.922h31.637v147.43h-40.868ZM2425.79 231.332v118.02h-33.165v-118.02h-39.5v-29.41h112.164v29.41ZM11.71.477V198.93L209.56.477ZM360.676.477 11.71 350.37h158.508l190.523-191.035L550.914 350.37h158.633V161.34H606.168v88.133L460.363 103.285h249.184V.477Zm0 0" style="stroke:none;fill-rule:nonzero;fill:#fff;fill-opacity:1"/></svg>